<svg aria-hidden="true" style="position: absolute; width: 0; height: 0; overflow: hidden;" version="1.1" xmlns="http://www.w3.org/2000/svg" xmlns:xlink="http://www.w3.org/1999/xlink">
<defs>
<symbol id="icon-IMAGE" viewBox="0 0 107 32">
<path fill="#121212" style="fill: var(--color1, #121212)" d="M18.976 6.434c0-0.845-0.166-1.682-0.49-2.462s-0.797-1.49-1.395-2.087-1.307-1.071-2.087-1.395c-0.781-0.323-1.617-0.49-2.462-0.49s-1.682 0.166-2.462 0.49c-0.781 0.323-1.49 0.797-2.087 1.395s-1.071 1.307-1.395 2.087c-0.323 0.781-0.49 1.617-0.49 2.462h2.569c0-0.508 0.1-1.010 0.294-1.479s0.479-0.895 0.838-1.254c0.359-0.359 0.785-0.644 1.254-0.838s0.972-0.294 1.479-0.294c0.508 0 1.010 0.1 1.479 0.294s0.895 0.479 1.254 0.838c0.359 0.359 0.644 0.785 0.838 1.254s0.294 0.972 0.294 1.479h2.569z"></path>
<path fill="#ff5634" style="fill: var(--color2, #ff5634)" d="M21.157 6.107h-17.013c-2.289 0-4.144 1.855-4.144 4.144v17.013c0 2.289 1.855 4.144 4.144 4.144h17.013c2.289 0 4.144-1.855 4.144-4.144v-17.013c0-2.289-1.855-4.144-4.144-4.144z"></path>
<path fill="#fff" style="fill: var(--color3, #fff)" d="M21.048 18.648c0 1.103-0.217 2.195-0.639 3.214s-1.041 1.944-1.82 2.724c-0.78 0.78-1.705 1.398-2.724 1.82s-2.111 0.639-3.214 0.639c-1.103 0-2.195-0.217-3.213-0.639s-1.945-1.041-2.724-1.82c-0.78-0.78-1.398-1.705-1.82-2.724s-0.639-2.111-0.639-3.214h3.353c0 0.662 0.13 1.318 0.384 1.93s0.625 1.168 1.093 1.637c0.468 0.468 1.025 0.84 1.637 1.094s1.268 0.384 1.93 0.384 1.318-0.13 1.93-0.384c0.612-0.254 1.168-0.625 1.637-1.094s0.84-1.025 1.094-1.637 0.384-1.268 0.384-1.93h3.353z"></path>
<path fill="#121212" style="fill: var(--color1, #121212)" d="M31.924 22.74h4.215c3.958 0 6.768-2.45 6.768-5.894s-2.81-5.877-6.768-5.877h-4.215v11.772zM34.442 20.444v-7.18h2.022c2.245 0 3.838 1.491 3.838 3.581 0 2.108-1.594 3.598-3.838 3.598h-2.022zM48.968 20.735c-1.045 0-1.816-0.651-2.108-1.611h6.391c0-3.341-1.628-5.449-4.404-5.449-2.587 0-4.558 1.936-4.558 4.609 0 2.724 2.056 4.661 4.695 4.661 1.302 0 2.827-0.548 3.615-1.371l-1.594-1.628c-0.48 0.463-1.336 0.788-2.039 0.788zM48.951 15.886c1.011 0 1.662 0.565 1.902 1.439h-3.958c0.326-0.891 1.114-1.439 2.056-1.439zM54.945 22.74h2.502v-11.977h-2.502v11.977zM60.881 12.665c0.737 0 1.337-0.617 1.337-1.371 0-0.703-0.6-1.337-1.337-1.337-0.771 0-1.371 0.634-1.371 1.337 0 0.754 0.6 1.371 1.371 1.371zM59.613 22.74h2.502v-8.859h-2.502v8.859zM67.263 22.74h2.313l3.787-8.859h-2.604l-2.331 5.98-2.382-5.98h-2.622l3.838 8.859zM78.319 20.735c-1.045 0-1.816-0.651-2.107-1.611h6.391c0-3.341-1.628-5.449-4.404-5.449-2.587 0-4.558 1.936-4.558 4.609 0 2.724 2.057 4.661 4.695 4.661 1.302 0 2.827-0.548 3.615-1.371l-1.593-1.628c-0.48 0.463-1.337 0.788-2.039 0.788zM78.301 15.886c1.011 0 1.662 0.565 1.902 1.439h-3.958c0.325-0.891 1.114-1.439 2.056-1.439zM86.797 15.526v-1.645h-2.502v8.859h2.502v-4.232c0-1.662 1.182-2.724 3.033-2.724v-2.108c-1.353 0-2.45 0.703-3.033 1.851zM106.853 10.969h-2.947l-2.827 3.855-2.827-3.855h-2.982l4.301 5.912-4.301 5.86h2.93l2.845-3.855 2.81 3.855h2.999l-4.318-5.912 4.318-5.86z"></path>
</symbol>
<symbol id="icon-burger" viewBox="0 0 191 32">
<path fill="none" stroke="#929292" style="stroke: var(--color1, #929292)" stroke-linejoin="round" stroke-linecap="round" stroke-miterlimit="4" stroke-width="3.7498" d="M5.912 21.731h27.338v3.905c0 1.036-0.411 2.029-1.144 2.762s-1.726 1.144-2.762 1.144h-19.527c-1.036 0-2.029-0.411-2.762-1.144s-1.144-1.726-1.144-2.762v-3.905z"></path>
<path fill="none" stroke="#929292" style="stroke: var(--color1, #929292)" stroke-linejoin="round" stroke-linecap="round" stroke-miterlimit="4" stroke-width="3.1127" d="M13.723 2.204h11.716c2.072 0 4.058 0.823 5.523 2.288s2.288 3.452 2.288 5.523v3.905h-27.338v-3.905c0-2.072 0.823-4.058 2.288-5.523s3.452-2.288 5.523-2.288z"></path>
<path fill="none" stroke="#929292" style="stroke: var(--color1, #929292)" stroke-linejoin="round" stroke-linecap="round" stroke-miterlimit="4" stroke-width="3.1127" d="M33.251 13.92h-27.338c-2.157 0-3.905 1.748-3.905 3.905s1.749 3.905 3.905 3.905h27.338c2.157 0 3.905-1.749 3.905-3.905s-1.748-3.905-3.905-3.905z"></path>
<path fill="#929292" style="fill: var(--color1, #929292)" d="M64.033 23.938l-4.525-6.426c2.517-0.884 4.177-3.025 4.177-5.756 0-3.641-2.945-6.212-6.934-6.212h-8.273v18.394h3.936v-5.971h2.918l4.204 5.971h4.498zM52.413 9.158h3.909c1.954 0 3.293 1.017 3.293 2.597s-1.339 2.597-3.293 2.597h-3.909v-5.194zM73.049 20.805c-1.633 0-2.838-1.017-3.293-2.517h9.987c0-5.221-2.544-8.514-6.881-8.514-4.043 0-7.122 3.025-7.122 7.202 0 4.257 3.213 7.283 7.336 7.283 2.035 0 4.418-0.857 5.649-2.142l-2.49-2.544c-0.75 0.723-2.088 1.232-3.186 1.232zM73.022 13.228c1.58 0 2.597 0.884 2.972 2.249h-6.185c0.509-1.392 1.74-2.249 3.213-2.249zM87.581 24.259c3.401 0 5.622-1.74 5.622-4.471 0-3.026-2.65-3.829-5.033-4.444-1.874-0.509-2.437-0.723-2.437-1.473 0-0.482 0.67-0.83 1.634-0.83 1.178 0 2.623 0.455 3.882 1.232l1.58-2.785c-1.526-1.017-3.481-1.714-5.462-1.714-3.267 0-5.435 1.874-5.409 4.498 0.027 2.731 2.222 3.507 5.060 4.204 1.419 0.375 2.437 0.643 2.437 1.499 0 0.616-0.75 1.044-1.794 1.044-1.848 0-3.401-0.669-4.632-1.553l-1.687 2.704c1.66 1.339 4.016 2.088 6.238 2.088zM103.109 20.51c-0.268 0.268-0.803 0.455-1.338 0.455-0.723 0-1.312-0.643-1.312-1.553v-6.158h2.998v-3.159h-2.998v-3.802h-3.749v3.802h-1.901v3.159h1.901v6.774c0 2.49 1.714 4.23 4.15 4.23 1.124 0 2.382-0.482 3.186-1.205l-0.937-2.544zM112.679 9.774c-1.928 0-3.829 0.535-5.784 1.526l1.312 2.597c1.098-0.562 2.303-0.991 3.588-0.991 2.276 0 3.186 1.285 3.186 2.758v0.268c-1.178-0.455-2.41-0.696-3.534-0.696-3.213 0-5.757 1.874-5.757 4.605 0 2.651 2.276 4.418 5.222 4.418 1.499 0 3.078-0.589 4.070-1.714v1.392h3.775v-8.273c0-3.615-2.463-5.89-6.078-5.89zM111.795 21.555c-1.338 0-2.33-0.696-2.33-1.821s1.125-1.955 2.544-1.955c1.071 0 2.088 0.187 2.972 0.509v1.285c-0.268 1.285-1.687 1.981-3.186 1.981zM131.234 10.095v8.273l-0.026-0.080c0 1.499-1.258 2.677-2.892 2.677-1.553 0-2.623-1.178-2.623-2.892v-7.979h-3.775v8.809c0 3.133 2.142 5.355 5.14 5.355 1.794 0 3.347-0.803 4.177-2.062v1.74h3.91v-13.842h-3.91zM142.406 12.666v-2.57h-3.909v13.842h3.909v-6.613c0-2.597 1.847-4.257 4.739-4.257v-3.293c-2.115 0-3.829 1.098-4.739 2.892zM155.586 9.774c-1.928 0-3.829 0.535-5.783 1.526l1.312 2.597c1.098-0.562 2.302-0.991 3.587-0.991 2.276 0 3.186 1.285 3.186 2.758v0.268c-1.178-0.455-2.41-0.696-3.534-0.696-3.213 0-5.756 1.874-5.756 4.605 0 2.651 2.275 4.418 5.221 4.418 1.499 0 3.079-0.589 4.070-1.714v1.392h3.775v-8.273c0-3.615-2.463-5.89-6.078-5.89zM154.702 21.555c-1.338 0-2.329-0.696-2.329-1.821s1.124-1.955 2.543-1.955c1.071 0 2.089 0.187 2.972 0.509v1.285c-0.268 1.285-1.687 1.981-3.186 1.981zM172.963 9.774c-1.794 0-3.346 0.803-4.177 2.062v-1.74h-3.909v13.842h3.909v-8.273l0.027 0.080c0-1.499 1.258-2.677 2.891-2.677 1.553 0 2.624 1.178 2.624 2.892v7.979h3.775v-8.809c0-3.133-2.142-5.355-5.141-5.355zM188.686 20.51c-0.267 0.268-0.803 0.455-1.338 0.455-0.723 0-1.312-0.643-1.312-1.553v-6.158h2.998v-3.159h-2.998v-3.802h-3.749v3.802h-1.901v3.159h1.901v6.774c0 2.49 1.714 4.23 4.15 4.23 1.125 0 2.383-0.482 3.186-1.205l-0.938-2.544z"></path>
</symbol>
<symbol id="icon-IMAGE-1" viewBox="0 0 178 32">
<path fill="none" stroke="#929292" style="stroke: var(--color1, #929292)" stroke-linejoin="round" stroke-linecap="round" stroke-miterlimit="4" stroke-width="3.3488" d="M17.099 29.733c3.704 0 7.256-1.471 9.875-4.090s4.091-6.171 4.091-9.876h-27.932c0 3.704 1.471 7.256 4.091 9.876 1.297 1.297 2.836 2.326 4.531 3.027s3.511 1.063 5.345 1.063z"></path>
<path fill="none" stroke="#929292" style="stroke: var(--color1, #929292)" stroke-linejoin="round" stroke-linecap="round" stroke-miterlimit="4" stroke-width="3.3488" d="M18.173 11.47l6.446-9.669"></path>
<path fill="none" stroke="#929292" style="stroke: var(--color1, #929292)" stroke-linejoin="round" stroke-linecap="round" stroke-miterlimit="4" stroke-width="3.3488" d="M21.396 12.545l7.52-6.446"></path>
<path fill="#929292" style="fill: var(--color1, #929292)" d="M59.512 25.244l-4.209-5.978c2.341-0.822 3.885-2.814 3.885-5.355 0-3.387-2.74-5.778-6.451-5.778h-7.696v17.111h3.661v-5.554h2.715l3.91 5.554h4.184zM48.703 11.496h3.636c1.818 0 3.063 0.946 3.063 2.416s-1.245 2.416-3.063 2.416h-3.636v-4.832zM67.899 22.33c-1.519 0-2.64-0.946-3.063-2.341h9.29c0-4.857-2.366-7.92-6.401-7.92-3.761 0-6.625 2.814-6.625 6.7 0 3.96 2.989 6.774 6.824 6.774 1.893 0 4.109-0.797 5.255-1.992l-2.316-2.366c-0.697 0.673-1.943 1.146-2.964 1.146zM67.874 15.282c1.469 0 2.416 0.822 2.765 2.092h-5.753c0.473-1.295 1.619-2.092 2.989-2.092zM81.417 25.543c3.164 0 5.231-1.619 5.231-4.159 0-2.814-2.466-3.562-4.682-4.134-1.744-0.473-2.267-0.673-2.267-1.37 0-0.448 0.623-0.772 1.52-0.772 1.095 0 2.44 0.423 3.611 1.146l1.47-2.59c-1.42-0.946-3.238-1.594-5.081-1.594-3.038 0-5.056 1.743-5.031 4.184 0.025 2.54 2.067 3.263 4.708 3.91 1.319 0.349 2.266 0.598 2.266 1.395 0 0.573-0.697 0.971-1.668 0.971-1.719 0-3.164-0.623-4.309-1.445l-1.57 2.515c1.544 1.245 3.737 1.943 5.803 1.943zM95.862 22.056c-0.249 0.249-0.747 0.423-1.245 0.423-0.673 0-1.22-0.598-1.22-1.445v-5.728h2.789v-2.939h-2.789v-3.537h-3.487v3.537h-1.768v2.939h1.768v6.301c0 2.316 1.594 3.935 3.861 3.935 1.046 0 2.216-0.448 2.963-1.121l-0.871-2.366zM104.764 12.069c-1.793 0-3.562 0.498-5.38 1.42l1.22 2.416c1.021-0.523 2.142-0.922 3.337-0.922 2.117 0 2.964 1.195 2.964 2.565v0.249c-1.096-0.423-2.242-0.648-3.288-0.648-2.989 0-5.354 1.743-5.354 4.284 0 2.466 2.116 4.11 4.857 4.11 1.395 0 2.864-0.548 3.786-1.594v1.295h3.512v-7.696c0-3.362-2.291-5.479-5.654-5.479zM103.942 23.028c-1.245 0-2.167-0.648-2.167-1.694s1.046-1.818 2.367-1.818c0.996 0 1.942 0.174 2.765 0.473v1.195c-0.249 1.196-1.57 1.843-2.964 1.843zM122.026 12.368v7.696l-0.025-0.075c0 1.395-1.171 2.491-2.689 2.491-1.445 0-2.441-1.096-2.441-2.69v-7.422h-3.512v8.194c0 2.914 1.992 4.981 4.782 4.981 1.668 0 3.113-0.747 3.885-1.918v1.619h3.636v-12.877h-3.636zM132.417 14.759v-2.391h-3.636v12.877h3.636v-6.152c0-2.416 1.718-3.96 4.409-3.96v-3.063c-1.968 0-3.562 1.021-4.409 2.69zM144.677 12.069c-1.793 0-3.562 0.498-5.38 1.42l1.22 2.416c1.021-0.523 2.142-0.922 3.337-0.922 2.117 0 2.964 1.195 2.964 2.565v0.249c-1.096-0.423-2.242-0.648-3.288-0.648-2.989 0-5.354 1.743-5.354 4.284 0 2.466 2.117 4.11 4.857 4.11 1.395 0 2.864-0.548 3.786-1.594v1.295h3.512v-7.696c0-3.362-2.291-5.479-5.654-5.479zM143.855 23.028c-1.245 0-2.166-0.648-2.166-1.694s1.046-1.818 2.366-1.818c0.996 0 1.943 0.174 2.765 0.473v1.195c-0.249 1.196-1.569 1.843-2.964 1.843zM160.842 12.069c-1.668 0-3.113 0.747-3.885 1.918v-1.619h-3.636v12.877h3.636v-7.696l0.025 0.075c0-1.395 1.171-2.491 2.69-2.491 1.444 0 2.441 1.096 2.441 2.69v7.422h3.512v-8.194c0-2.914-1.992-4.981-4.782-4.981zM175.469 22.056c-0.249 0.249-0.747 0.423-1.245 0.423-0.673 0-1.22-0.598-1.22-1.445v-5.728h2.789v-2.939h-2.789v-3.537h-3.487v3.537h-1.769v2.939h1.769v6.301c0 2.316 1.593 3.935 3.86 3.935 1.046 0 2.217-0.448 2.964-1.121l-0.872-2.366z"></path>
</symbol>
<symbol id="icon-IMAGE-2" viewBox="0 0 182 32">
<path fill="none" stroke="#929292" style="stroke: var(--color1, #929292)" stroke-linejoin="round" stroke-linecap="round" stroke-miterlimit="4" stroke-width="2.8267" d="M26.829 14.775c2.927 0 5.3-2.966 5.3-6.626s-2.373-6.626-5.3-6.626c-2.927 0-5.3 2.966-5.3 6.626s2.373 6.626 5.3 6.626z"></path>
<path fill="none" stroke="#929292" style="stroke: var(--color1, #929292)" stroke-linejoin="round" stroke-linecap="round" stroke-miterlimit="4" stroke-width="2.8267" d="M26.829 14.775v15.46"></path>
<path fill="none" stroke="#929292" style="stroke: var(--color1, #929292)" stroke-linejoin="round" stroke-linecap="round" stroke-miterlimit="4" stroke-width="2.8267" d="M11.148 1.524v28.711"></path>
<path fill="none" stroke="#929292" style="stroke: var(--color1, #929292)" stroke-linejoin="round" stroke-linecap="round" stroke-miterlimit="4" stroke-width="2.8267" d="M16.669 1.524v5.521c0 0.725-0.143 1.443-0.42 2.113s-0.684 1.279-1.197 1.791c-0.513 0.513-1.121 0.919-1.791 1.197s-1.388 0.42-2.113 0.42c-1.464 0-2.869-0.582-3.904-1.617s-1.617-2.44-1.617-3.904v-5.521"></path>
<path fill="#929292" style="fill: var(--color1, #929292)" d="M60.874 23.56l-4.309-6.12c2.397-0.841 3.978-2.881 3.978-5.482 0-3.468-2.805-5.916-6.604-5.916h-7.879v17.518h3.748v-5.686h2.779l4.003 5.686h4.284zM49.808 9.484h3.723c1.861 0 3.136 0.969 3.136 2.473s-1.275 2.473-3.136 2.473h-3.723v-4.947zM69.461 20.576c-1.555 0-2.703-0.969-3.136-2.397h9.511c0-4.972-2.422-8.109-6.553-8.109-3.85 0-6.783 2.881-6.783 6.859 0 4.054 3.060 6.936 6.987 6.936 1.938 0 4.207-0.816 5.38-2.040l-2.371-2.422c-0.714 0.689-1.989 1.173-3.034 1.173zM69.435 13.36c1.504 0 2.473 0.841 2.83 2.142h-5.89c0.484-1.326 1.657-2.142 3.060-2.142zM83.301 23.866c3.239 0 5.355-1.657 5.355-4.258 0-2.881-2.525-3.646-4.794-4.233-1.785-0.485-2.321-0.689-2.321-1.402 0-0.459 0.638-0.79 1.556-0.79 1.122 0 2.499 0.434 3.698 1.173l1.504-2.652c-1.454-0.969-3.315-1.632-5.202-1.632-3.111 0-5.176 1.785-5.151 4.284 0.026 2.601 2.117 3.34 4.82 4.003 1.351 0.357 2.32 0.612 2.32 1.428 0 0.586-0.714 0.994-1.708 0.994-1.759 0-3.239-0.637-4.411-1.479l-1.607 2.575c1.581 1.275 3.826 1.989 5.941 1.989zM98.089 20.296c-0.255 0.255-0.765 0.434-1.275 0.434-0.689 0-1.25-0.612-1.25-1.479v-5.865h2.856v-3.009h-2.856v-3.621h-3.57v3.621h-1.81v3.009h1.81v6.451c0 2.371 1.632 4.029 3.953 4.029 1.070 0 2.269-0.459 3.034-1.148l-0.892-2.422zM107.204 10.070c-1.836 0-3.646 0.51-5.508 1.453l1.25 2.473c1.045-0.535 2.193-0.943 3.416-0.943 2.168 0 3.035 1.224 3.035 2.626v0.255c-1.122-0.433-2.295-0.663-3.366-0.663-3.060 0-5.482 1.785-5.482 4.386 0 2.524 2.167 4.207 4.972 4.207 1.428 0 2.933-0.561 3.876-1.632v1.326h3.595v-7.879c0-3.442-2.346-5.61-5.788-5.61zM106.362 21.29c-1.275 0-2.218-0.663-2.218-1.734s1.070-1.861 2.422-1.861c1.020 0 1.989 0.178 2.83 0.485v1.224c-0.255 1.224-1.607 1.887-3.035 1.887zM124.876 10.376v7.879l-0.026-0.076c0 1.428-1.198 2.55-2.754 2.55-1.479 0-2.499-1.122-2.499-2.754v-7.599h-3.595v8.389c0 2.983 2.040 5.1 4.896 5.1 1.708 0 3.187-0.765 3.978-1.963v1.657h3.723v-13.183h-3.723zM135.515 12.824v-2.448h-3.723v13.183h3.723v-6.298c0-2.473 1.76-4.054 4.514-4.054v-3.136c-2.014 0-3.646 1.046-4.514 2.754zM148.067 10.070c-1.836 0-3.646 0.51-5.508 1.453l1.25 2.473c1.045-0.535 2.193-0.943 3.416-0.943 2.168 0 3.035 1.224 3.035 2.626v0.255c-1.122-0.433-2.295-0.663-3.366-0.663-3.060 0-5.482 1.785-5.482 4.386 0 2.524 2.168 4.207 4.972 4.207 1.428 0 2.933-0.561 3.876-1.632v1.326h3.595v-7.879c0-3.442-2.346-5.61-5.788-5.61zM147.225 21.29c-1.275 0-2.218-0.663-2.218-1.734s1.070-1.861 2.422-1.861c1.020 0 1.989 0.178 2.83 0.485v1.224c-0.255 1.224-1.606 1.887-3.035 1.887zM164.617 10.070c-1.708 0-3.187 0.765-3.978 1.963v-1.657h-3.723v13.183h3.723v-7.879l0.026 0.076c0-1.428 1.198-2.55 2.754-2.55 1.479 0 2.499 1.122 2.499 2.754v7.599h3.595v-8.389c0-2.983-2.040-5.1-4.896-5.1zM179.592 20.296c-0.254 0.255-0.765 0.434-1.275 0.434-0.689 0-1.25-0.612-1.25-1.479v-5.865h2.856v-3.009h-2.856v-3.621h-3.57v3.621h-1.811v3.009h1.811v6.451c0 2.371 1.632 4.029 3.952 4.029 1.071 0 2.27-0.459 3.035-1.148l-0.893-2.422z"></path>
</symbol>
<symbol id="icon-IMAGE-3" viewBox="0 0 170 32">
<path fill="none" stroke="#929292" style="stroke: var(--color1, #929292)" stroke-linejoin="round" stroke-linecap="round" stroke-miterlimit="4" stroke-width="2.7668" d="M15.187 2.592l-11.254 21.17c-0.156 0.292-0.253 0.612-0.285 0.942s0.003 0.662 0.1 0.979c0.098 0.316 0.258 0.61 0.47 0.864s0.473 0.463 0.767 0.616c3.742 1.886 7.875 2.869 12.066 2.869s8.324-0.983 12.066-2.869c0.302-0.145 0.571-0.348 0.792-0.599s0.39-0.543 0.497-0.86c0.106-0.317 0.148-0.652 0.123-0.986s-0.117-0.658-0.271-0.956l-11.254-21.17c-0.191-0.338-0.469-0.618-0.804-0.814s-0.716-0.298-1.105-0.298c-0.388 0-0.769 0.103-1.105 0.298s-0.613 0.476-0.804 0.814z"></path>
<path fill="none" stroke="#929292" style="stroke: var(--color1, #929292)" stroke-linejoin="round" stroke-linecap="round" stroke-miterlimit="4" stroke-width="2.7668" d="M28.591 20.779c-3.583 1.739-7.513 2.643-11.496 2.643s-7.913-0.903-11.496-2.642"></path>
<path fill="none" stroke="#929292" style="stroke: var(--color1, #929292)" stroke-linejoin="round" stroke-linecap="round" stroke-miterlimit="4" stroke-width="2.7668" d="M13.805 16.852v1.097"></path>
<path fill="none" stroke="#929292" style="stroke: var(--color1, #929292)" stroke-linejoin="round" stroke-linecap="round" stroke-miterlimit="4" stroke-width="2.7668" d="M20.386 16.852v1.097"></path>
<path fill="none" stroke="#929292" style="stroke: var(--color1, #929292)" stroke-linejoin="round" stroke-linecap="round" stroke-miterlimit="4" stroke-width="2.7668" d="M17.095 10.27v1.097"></path>
<path fill="#929292" style="fill: var(--color1, #929292)" d="M56.765 22.7l-4.022-5.712c2.237-0.785 3.713-2.689 3.713-5.117 0-3.237-2.618-5.521-6.164-5.521h-7.354v16.35h3.498v-5.307h2.594l3.736 5.307h3.998zM46.436 9.563h3.475c1.737 0 2.927 0.904 2.927 2.309s-1.19 2.309-2.927 2.309h-3.475v-4.617zM64.779 19.916c-1.452 0-2.523-0.904-2.927-2.237h8.877c0-4.641-2.261-7.568-6.116-7.568-3.594 0-6.331 2.689-6.331 6.402 0 3.784 2.856 6.473 6.521 6.473 1.809 0 3.927-0.762 5.022-1.904l-2.213-2.261c-0.666 0.643-1.856 1.095-2.832 1.095zM64.755 13.18c1.404 0 2.309 0.785 2.642 1.999h-5.498c0.452-1.238 1.547-1.999 2.856-1.999zM77.697 22.986c3.022 0 4.998-1.547 4.998-3.974 0-2.689-2.357-3.403-4.474-3.951-1.666-0.452-2.166-0.643-2.166-1.309 0-0.428 0.595-0.738 1.452-0.738 1.047 0 2.332 0.405 3.451 1.095l1.404-2.475c-1.356-0.904-3.094-1.523-4.855-1.523-2.903 0-4.831 1.666-4.808 3.998 0.024 2.428 1.975 3.118 4.498 3.736 1.261 0.333 2.165 0.571 2.165 1.333 0 0.547-0.666 0.928-1.594 0.928-1.642 0-3.022-0.595-4.117-1.38l-1.499 2.404c1.476 1.19 3.57 1.856 5.545 1.856zM91.499 19.654c-0.237 0.238-0.714 0.405-1.19 0.405-0.643 0-1.166-0.571-1.166-1.38v-5.474h2.665v-2.808h-2.665v-3.38h-3.332v3.38h-1.69v2.808h1.69v6.021c0 2.213 1.523 3.76 3.689 3.76 1 0 2.118-0.428 2.832-1.071l-0.833-2.261zM100.006 10.11c-1.714 0-3.403 0.476-5.141 1.357l1.166 2.309c0.976-0.5 2.047-0.881 3.189-0.881 2.023 0 2.832 1.142 2.832 2.451v0.238c-1.047-0.405-2.142-0.619-3.142-0.619-2.856 0-5.116 1.666-5.116 4.093 0 2.356 2.023 3.927 4.641 3.927 1.333 0 2.737-0.524 3.617-1.523v1.238h3.356v-7.354c0-3.213-2.189-5.236-5.402-5.236zM99.22 20.582c-1.19 0-2.070-0.619-2.070-1.618s0.999-1.737 2.261-1.737c0.952 0 1.857 0.167 2.642 0.452v1.142c-0.238 1.142-1.499 1.761-2.832 1.761zM116.5 10.396v7.354l-0.024-0.071c0 1.333-1.119 2.38-2.57 2.38-1.38 0-2.332-1.047-2.332-2.57v-7.092h-3.356v7.83c0 2.785 1.904 4.76 4.57 4.76 1.594 0 2.975-0.714 3.713-1.833v1.547h3.475v-12.304h-3.475zM126.43 12.681v-2.285h-3.475v12.304h3.475v-5.878c0-2.309 1.643-3.784 4.213-3.784v-2.927c-1.88 0-3.403 0.976-4.213 2.57zM138.145 10.11c-1.714 0-3.403 0.476-5.141 1.357l1.166 2.309c0.976-0.5 2.047-0.881 3.189-0.881 2.022 0 2.832 1.142 2.832 2.451v0.238c-1.047-0.405-2.142-0.619-3.141-0.619-2.857 0-5.117 1.666-5.117 4.093 0 2.356 2.023 3.927 4.641 3.927 1.333 0 2.737-0.524 3.617-1.523v1.238h3.356v-7.354c0-3.213-2.19-5.236-5.402-5.236zM137.36 20.582c-1.19 0-2.071-0.619-2.071-1.618s1-1.737 2.261-1.737c0.952 0 1.857 0.167 2.642 0.452v1.142c-0.238 1.142-1.499 1.761-2.832 1.761zM153.591 10.11c-1.594 0-2.975 0.714-3.713 1.833v-1.547h-3.475v12.304h3.475v-7.354l0.024 0.071c0-1.333 1.119-2.38 2.57-2.38 1.381 0 2.332 1.047 2.332 2.57v7.092h3.356v-7.83c0-2.784-1.904-4.76-4.57-4.76zM167.568 19.654c-0.238 0.238-0.715 0.405-1.19 0.405-0.643 0-1.166-0.571-1.166-1.38v-5.474h2.666v-2.808h-2.666v-3.38h-3.332v3.38h-1.69v2.808h1.69v6.021c0 2.213 1.523 3.76 3.689 3.76 1 0 2.118-0.428 2.832-1.071l-0.833-2.261z"></path>
</symbol>
</defs>
</svg>
