<svg aria-hidden="true" style="position: absolute; width: 0; height: 0; overflow: hidden;" version="1.1" xmlns="http://www.w3.org/2000/svg" xmlns:xlink="http://www.w3.org/1999/xlink">
<defs>
<symbol id="icon-IMAGE" viewBox="0 0 107 32">
<path fill="#121212" style="fill: var(--color1, #121212)" d="M18.976 6.434c0-0.845-0.166-1.682-0.49-2.462s-0.797-1.49-1.395-2.087-1.307-1.071-2.087-1.395c-0.781-0.323-1.617-0.49-2.462-0.49s-1.682 0.166-2.462 0.49c-0.781 0.323-1.49 0.797-2.087 1.395s-1.071 1.307-1.395 2.087c-0.323 0.781-0.49 1.617-0.49 2.462h2.569c0-0.508 0.1-1.010 0.294-1.479s0.479-0.895 0.838-1.254c0.359-0.359 0.785-0.644 1.254-0.838s0.972-0.294 1.479-0.294c0.508 0 1.010 0.1 1.479 0.294s0.895 0.479 1.254 0.838c0.359 0.359 0.644 0.785 0.838 1.254s0.294 0.972 0.294 1.479h2.569z"></path>
<path fill="#ff5634" style="fill: var(--color2, #ff5634)" d="M21.157 6.107h-17.013c-2.289 0-4.144 1.855-4.144 4.144v17.013c0 2.289 1.855 4.144 4.144 4.144h17.013c2.289 0 4.144-1.855 4.144-4.144v-17.013c0-2.289-1.855-4.144-4.144-4.144z"></path>
<path fill="#fff" style="fill: var(--color3, #fff)" d="M21.048 18.648c0 1.103-0.217 2.195-0.639 3.214s-1.041 1.944-1.82 2.724c-0.78 0.78-1.705 1.398-2.724 1.82s-2.111 0.639-3.214 0.639c-1.103 0-2.195-0.217-3.213-0.639s-1.945-1.041-2.724-1.82c-0.78-0.78-1.398-1.705-1.82-2.724s-0.639-2.111-0.639-3.214h3.353c0 0.662 0.13 1.318 0.384 1.93s0.625 1.168 1.093 1.637c0.468 0.468 1.025 0.84 1.637 1.094s1.268 0.384 1.93 0.384 1.318-0.13 1.93-0.384c0.612-0.254 1.168-0.625 1.637-1.094s0.84-1.025 1.094-1.637 0.384-1.268 0.384-1.93h3.353z"></path>
<path fill="#121212" style="fill: var(--color1, #121212)" d="M31.924 22.74h4.215c3.958 0 6.768-2.45 6.768-5.894s-2.81-5.877-6.768-5.877h-4.215v11.772zM34.442 20.444v-7.18h2.022c2.245 0 3.838 1.491 3.838 3.581 0 2.108-1.594 3.598-3.838 3.598h-2.022zM48.968 20.735c-1.045 0-1.816-0.651-2.108-1.611h6.391c0-3.341-1.628-5.449-4.404-5.449-2.587 0-4.558 1.936-4.558 4.609 0 2.724 2.056 4.661 4.695 4.661 1.302 0 2.827-0.548 3.615-1.371l-1.594-1.628c-0.48 0.463-1.336 0.788-2.039 0.788zM48.951 15.886c1.011 0 1.662 0.565 1.902 1.439h-3.958c0.326-0.891 1.114-1.439 2.056-1.439zM54.945 22.74h2.502v-11.977h-2.502v11.977zM60.881 12.665c0.737 0 1.337-0.617 1.337-1.371 0-0.703-0.6-1.337-1.337-1.337-0.771 0-1.371 0.634-1.371 1.337 0 0.754 0.6 1.371 1.371 1.371zM59.613 22.74h2.502v-8.859h-2.502v8.859zM67.263 22.74h2.313l3.787-8.859h-2.604l-2.331 5.98-2.382-5.98h-2.622l3.838 8.859zM78.319 20.735c-1.045 0-1.816-0.651-2.107-1.611h6.391c0-3.341-1.628-5.449-4.404-5.449-2.587 0-4.558 1.936-4.558 4.609 0 2.724 2.057 4.661 4.695 4.661 1.302 0 2.827-0.548 3.615-1.371l-1.593-1.628c-0.48 0.463-1.337 0.788-2.039 0.788zM78.301 15.886c1.011 0 1.662 0.565 1.902 1.439h-3.958c0.325-0.891 1.114-1.439 2.056-1.439zM86.797 15.526v-1.645h-2.502v8.859h2.502v-4.232c0-1.662 1.182-2.724 3.033-2.724v-2.108c-1.353 0-2.45 0.703-3.033 1.851zM106.853 10.969h-2.947l-2.827 3.855-2.827-3.855h-2.982l4.301 5.912-4.301 5.86h2.93l2.845-3.855 2.81 3.855h2.999l-4.318-5.912 4.318-5.86z"></path>
</symbol>
<symbol id="icon-burger" viewBox="0 0 191 32">
<path fill="none" stroke="#929292" style="stroke: var(--color1, #929292)" stroke-linejoin="round" stroke-linecap="round" stroke-miterlimit="4" stroke-width="3.7498" d="M5.912 21.731h27.338v3.905c0 1.036-0.411 2.029-1.144 2.762s-1.726 1.144-2.762 1.144h-19.527c-1.036 0-2.029-0.411-2.762-1.144s-1.144-1.726-1.144-2.762v-3.905z"></path>
<path fill="none" stroke="#929292" style="stroke: var(--color1, #929292)" stroke-linejoin="round" stroke-linecap="round" stroke-miterlimit="4" stroke-width="3.1127" d="M13.723 2.204h11.716c2.072 0 4.058 0.823 5.523 2.288s2.288 3.452 2.288 5.523v3.905h-27.338v-3.905c0-2.072 0.823-4.058 2.288-5.523s3.452-2.288 5.523-2.288z"></path>
<path fill="none" stroke="#929292" style="stroke: var(--color1, #929292)" stroke-linejoin="round" stroke-linecap="round" stroke-miterlimit="4" stroke-width="3.1127" d="M33.251 13.92h-27.338c-2.157 0-3.905 1.748-3.905 3.905s1.749 3.905 3.905 3.905h27.338c2.157 0 3.905-1.749 3.905-3.905s-1.748-3.905-3.905-3.905z"></path>
<path fill="#929292" style="fill: var(--color1, #929292)" d="M64.033 23.938l-4.525-6.426c2.517-0.884 4.177-3.025 4.177-5.756 0-3.641-2.945-6.212-6.934-6.212h-8.273v18.394h3.936v-5.971h2.918l4.204 5.971h4.498zM52.413 9.158h3.909c1.954 0 3.293 1.017 3.293 2.597s-1.339 2.597-3.293 2.597h-3.909v-5.194zM73.049 20.805c-1.633 0-2.838-1.017-3.293-2.517h9.987c0-5.221-2.544-8.514-6.881-8.514-4.043 0-7.122 3.025-7.122 7.202 0 4.257 3.213 7.283 7.336 7.283 2.035 0 4.418-0.857 5.649-2.142l-2.49-2.544c-0.75 0.723-2.088 1.232-3.186 1.232zM73.022 13.228c1.58 0 2.597 0.884 2.972 2.249h-6.185c0.509-1.392 1.74-2.249 3.213-2.249zM87.581 24.259c3.401 0 5.622-1.74 5.622-4.471 0-3.026-2.65-3.829-5.033-4.444-1.874-0.509-2.437-0.723-2.437-1.473 0-0.482 0.67-0.83 1.634-0.83 1.178 0 2.623 0.455 3.882 1.232l1.58-2.785c-1.526-1.017-3.481-1.714-5.462-1.714-3.267 0-5.435 1.874-5.409 4.498 0.027 2.731 2.222 3.507 5.060 4.204 1.419 0.375 2.437 0.643 2.437 1.499 0 0.616-0.75 1.044-1.794 1.044-1.848 0-3.401-0.669-4.632-1.553l-1.687 2.704c1.66 1.339 4.016 2.088 6.238 2.088zM103.109 20.51c-0.268 0.268-0.803 0.455-1.338 0.455-0.723 0-1.312-0.643-1.312-1.553v-6.158h2.998v-3.159h-2.998v-3.802h-3.749v3.802h-1.901v3.159h1.901v6.774c0 2.49 1.714 4.23 4.15 4.23 1.124 0 2.382-0.482 3.186-1.205l-0.937-2.544zM112.679 9.774c-1.928 0-3.829 0.535-5.784 1.526l1.312 2.597c1.098-0.562 2.303-0.991 3.588-0.991 2.276 0 3.186 1.285 3.186 2.758v0.268c-1.178-0.455-2.41-0.696-3.534-0.696-3.213 0-5.757 1.874-5.757 4.605 0 2.651 2.276 4.418 5.222 4.418 1.499 0 3.078-0.589 4.070-1.714v1.392h3.775v-8.273c0-3.615-2.463-5.89-6.078-5.89zM111.795 21.555c-1.338 0-2.33-0.696-2.33-1.821s1.125-1.955 2.544-1.955c1.071 0 2.088 0.187 2.972 0.509v1.285c-0.268 1.285-1.687 1.981-3.186 1.981zM131.234 10.095v8.273l-0.026-0.080c0 1.499-1.258 2.677-2.892 2.677-1.553 0-2.623-1.178-2.623-2.892v-7.979h-3.775v8.809c0 3.133 2.142 5.355 5.14 5.355 1.794 0 3.347-0.803 4.177-2.062v1.74h3.91v-13.842h-3.91zM142.406 12.666v-2.57h-3.909v13.842h3.909v-6.613c0-2.597 1.847-4.257 4.739-4.257v-3.293c-2.115 0-3.829 1.098-4.739 2.892zM155.586 9.774c-1.928 0-3.829 0.535-5.783 1.526l1.312 2.597c1.098-0.562 2.302-0.991 3.587-0.991 2.276 0 3.186 1.285 3.186 2.758v0.268c-1.178-0.455-2.41-0.696-3.534-0.696-3.213 0-5.756 1.874-5.756 4.605 0 2.651 2.275 4.418 5.221 4.418 1.499 0 3.079-0.589 4.070-1.714v1.392h3.775v-8.273c0-3.615-2.463-5.89-6.078-5.89zM154.702 21.555c-1.338 0-2.329-0.696-2.329-1.821s1.124-1.955 2.543-1.955c1.071 0 2.089 0.187 2.972 0.509v1.285c-0.268 1.285-1.687 1.981-3.186 1.981zM172.963 9.774c-1.794 0-3.346 0.803-4.177 2.062v-1.74h-3.909v13.842h3.909v-8.273l0.027 0.080c0-1.499 1.258-2.677 2.891-2.677 1.553 0 2.624 1.178 2.624 2.892v7.979h3.775v-8.809c0-3.133-2.142-5.355-5.141-5.355zM188.686 20.51c-0.267 0.268-0.803 0.455-1.338 0.455-0.723 0-1.312-0.643-1.312-1.553v-6.158h2.998v-3.159h-2.998v-3.802h-3.749v3.802h-1.901v3.159h1.901v6.774c0 2.49 1.714 4.23 4.15 4.23 1.125 0 2.383-0.482 3.186-1.205l-0.938-2.544z"></path>
</symbol>
<symbol id="icon-IMAGE-1" viewBox="0 0 178 32">
<path fill="none" stroke="#929292" style="stroke: var(--color1, #929292)" stroke-linejoin="round" stroke-linecap="round" stroke-miterlimit="4" stroke-width="3.3488" d="M17.099 29.733c3.704 0 7.256-1.471 9.875-4.090s4.091-6.171 4.091-9.876h-27.932c0 3.704 1.471 7.256 4.091 9.876 1.297 1.297 2.836 2.326 4.531 3.027s3.511 1.063 5.345 1.063z"></path>
<path fill="none" stroke="#929292" style="stroke: var(--color1, #929292)" stroke-linejoin="round" stroke-linecap="round" stroke-miterlimit="4" stroke-width="3.3488" d="M18.173 11.47l6.446-9.669"></path>
<path fill="none" stroke="#929292" style="stroke: var(--color1, #929292)" stroke-linejoin="round" stroke-linecap="round" stroke-miterlimit="4" stroke-width="3.3488" d="M21.396 12.545l7.52-6.446"></path>
<path fill="#929292" style="fill: var(--color1, #929292)" d="M59.512 25.244l-4.209-5.978c2.341-0.822 3.885-2.814 3.885-5.355 0-3.387-2.74-5.778-6.451-5.778h-7.696v17.111h3.661v-5.554h2.715l3.91 5.554h4.184zM48.703 11.496h3.636c1.818 0 3.063 0.946 3.063 2.416s-1.245 2.416-3.063 2.416h-3.636v-4.832zM67.899 22.33c-1.519 0-2.64-0.946-3.063-2.341h9.29c0-4.857-2.366-7.92-6.401-7.92-3.761 0-6.625 2.814-6.625 6.7 0 3.96 2.989 6.774 6.824 6.774 1.893 0 4.109-0.797 5.255-1.992l-2.316-2.366c-0.697 0.673-1.943 1.146-2.964 1.146zM67.874 15.282c1.469 0 2.416 0.822 2.765 2.092h-5.753c0.473-1.295 1.619-2.092 2.989-2.092zM81.417 25.543c3.164 0 5.231-1.619 5.231-4.159 0-2.814-2.466-3.562-4.682-4.134-1.744-0.473-2.267-0.673-2.267-1.37 0-0.448 0.623-0.772 1.52-0.772 1.095 0 2.44 0.423 3.611 1.146l1.47-2.59c-1.42-0.946-3.238-1.594-5.081-1.594-3.038 0-5.056 1.743-5.031 4.184 0.025 2.54 2.067 3.263 4.708 3.91 1.319 0.349 2.266 0.598 2.266 1.395 0 0.573-0.697 0.971-1.668 0.971-1.719 0-3.164-0.623-4.309-1.445l-1.57 2.515c1.544 1.245 3.737 1.943 5.803 1.943zM95.862 22.056c-0.249 0.249-0.747 0.423-1.245 0.423-0.673 0-1.22-0.598-1.22-1.445v-5.728h2.789v-2.939h-2.789v-3.537h-3.487v3.537h-1.768v2.939h1.768v6.301c0 2.316 1.594 3.935 3.861 3.935 1.046 0 2.216-0.448 2.963-1.121l-0.871-2.366zM104.764 12.069c-1.793 0-3.562 0.498-5.38 1.42l1.22 2.416c1.021-0.523 2.142-0.922 3.337-0.922 2.117 0 2.964 1.195 2.964 2.565v0.249c-1.096-0.423-2.242-0.648-3.288-0.648-2.989 0-5.354 1.743-5.354 4.284 0 2.466 2.116 4.11 4.857 4.11 1.395 0 2.864-0.548 3.786-1.594v1.295h3.512v-7.696c0-3.362-2.291-5.479-5.654-5.479zM103.942 23.028c-1.245 0-2.167-0.648-2.167-1.694s1.046-1.818 2.367-1.818c0.996 0 1.942 0.174 2.765 0.473v1.195c-0.249 1.196-1.57 1.843-2.964 1.843zM122.026 12.368v7.696l-0.025-0.075c0 1.395-1.171 2.491-2.689 2.491-1.445 0-2.441-1.096-2.441-2.69v-7.422h-3.512v8.194c0 2.914 1.992 4.981 4.782 4.981 1.668 0 3.113-0.747 3.885-1.918v1.619h3.636v-12.877h-3.636zM132.417 14.759v-2.391h-3.636v12.877h3.636v-6.152c0-2.416 1.718-3.96 4.409-3.96v-3.063c-1.968 0-3.562 1.021-4.409 2.69zM144.677 12.069c-1.793 0-3.562 0.498-5.38 1.42l1.22 2.416c1.021-0.523 2.142-0.922 3.337-0.922 2.117 0 2.964 1.195 2.964 2.565v0.249c-1.096-0.423-2.242-0.648-3.288-0.648-2.989 0-5.354 1.743-5.354 4.284 0 2.466 2.117 4.11 4.857 4.11 1.395 0 2.864-0.548 3.786-1.594v1.295h3.512v-7.696c0-3.362-2.291-5.479-5.654-5.479zM143.855 23.028c-1.245 0-2.166-0.648-2.166-1.694s1.046-1.818 2.366-1.818c0.996 0 1.943 0.174 2.765 0.473v1.195c-0.249 1.196-1.569 1.843-2.964 1.843zM160.842 12.069c-1.668 0-3.113 0.747-3.885 1.918v-1.619h-3.636v12.877h3.636v-7.696l0.025 0.075c0-1.395 1.171-2.491 2.69-2.491 1.444 0 2.441 1.096 2.441 2.69v7.422h3.512v-8.194c0-2.914-1.992-4.981-4.782-4.981zM175.469 22.056c-0.249 0.249-0.747 0.423-1.245 0.423-0.673 0-1.22-0.598-1.22-1.445v-5.728h2.789v-2.939h-2.789v-3.537h-3.487v3.537h-1.769v2.939h1.769v6.301c0 2.316 1.593 3.935 3.86 3.935 1.046 0 2.217-0.448 2.964-1.121l-0.872-2.366z"></path>
</symbol>
<symbol id="icon-IMAGE-2" viewBox="0 0 182 32">
<path fill="none" stroke="#929292" style="stroke: var(--color1, #929292)" stroke-linejoin="round" stroke-linecap="round" stroke-miterlimit="4" stroke-width="2.8267" d="M26.829 14.775c2.927 0 5.3-2.966 5.3-6.626s-2.373-6.626-5.3-6.626c-2.927 0-5.3 2.966-5.3 6.626s2.373 6.626 5.3 6.626z"></path>
<path fill="none" stroke="#929292" style="stroke: var(--color1, #929292)" stroke-linejoin="round" stroke-linecap="round" stroke-miterlimit="4" stroke-width="2.8267" d="M26.829 14.775v15.46"></path>
<path fill="none" stroke="#929292" style="stroke: var(--color1, #929292)" stroke-linejoin="round" stroke-linecap="round" stroke-miterlimit="4" stroke-width="2.8267" d="M11.148 1.524v28.711"></path>
<path fill="none" stroke="#929292" style="stroke: var(--color1, #929292)" stroke-linejoin="round" stroke-linecap="round" stroke-miterlimit="4" stroke-width="2.8267" d="M16.669 1.524v5.521c0 0.725-0.143 1.443-0.42 2.113s-0.684 1.279-1.197 1.791c-0.513 0.513-1.121 0.919-1.791 1.197s-1.388 0.42-2.113 0.42c-1.464 0-2.869-0.582-3.904-1.617s-1.617-2.44-1.617-3.904v-5.521"></path>
<path fill="#929292" style="fill: var(--color1, #929292)" d="M60.874 23.56l-4.309-6.12c2.397-0.841 3.978-2.881 3.978-5.482 0-3.468-2.805-5.916-6.604-5.916h-7.879v17.518h3.748v-5.686h2.779l4.003 5.686h4.284zM49.808 9.484h3.723c1.861 0 3.136 0.969 3.136 2.473s-1.275 2.473-3.136 2.473h-3.723v-4.947zM69.461 20.576c-1.555 0-2.703-0.969-3.136-2.397h9.511c0-4.972-2.422-8.109-6.553-8.109-3.85 0-6.783 2.881-6.783 6.859 0 4.054 3.060 6.936 6.987 6.936 1.938 0 4.207-0.816 5.38-2.040l-2.371-2.422c-0.714 0.689-1.989 1.173-3.034 1.173zM69.435 13.36c1.504 0 2.473 0.841 2.83 2.142h-5.89c0.484-1.326 1.657-2.142 3.060-2.142zM83.301 23.866c3.239 0 5.355-1.657 5.355-4.258 0-2.881-2.525-3.646-4.794-4.233-1.785-0.485-2.321-0.689-2.321-1.402 0-0.459 0.638-0.79 1.556-0.79 1.122 0 2.499 0.434 3.698 1.173l1.504-2.652c-1.454-0.969-3.315-1.632-5.202-1.632-3.111 0-5.176 1.785-5.151 4.284 0.026 2.601 2.117 3.34 4.82 4.003 1.351 0.357 2.32 0.612 2.32 1.428 0 0.586-0.714 0.994-1.708 0.994-1.759 0-3.239-0.637-4.411-1.479l-1.607 2.575c1.581 1.275 3.826 1.989 5.941 1.989zM98.089 20.296c-0.255 0.255-0.765 0.434-1.275 0.434-0.689 0-1.25-0.612-1.25-1.479v-5.865h2.856v-3.009h-2.856v-3.621h-3.57v3.621h-1.81v3.009h1.81v6.451c0 2.371 1.632 4.029 3.953 4.029 1.070 0 2.269-0.459 3.034-1.148l-0.892-2.422zM107.204 10.070c-1.836 0-3.646 0.51-5.508 1.453l1.25 2.473c1.045-0.535 2.193-0.943 3.416-0.943 2.168 0 3.035 1.224 3.035 2.626v0.255c-1.122-0.433-2.295-0.663-3.366-0.663-3.060 0-5.482 1.785-5.482 4.386 0 2.524 2.167 4.207 4.972 4.207 1.428 0 2.933-0.561 3.876-1.632v1.326h3.595v-7.879c0-3.442-2.346-5.61-5.788-5.61zM106.362 21.29c-1.275 0-2.218-0.663-2.218-1.734s1.070-1.861 2.422-1.861c1.020 0 1.989 0.178 2.83 0.485v1.224c-0.255 1.224-1.607 1.887-3.035 1.887zM124.876 10.376v7.879l-0.026-0.076c0 1.428-1.198 2.55-2.754 2.55-1.479 0-2.499-1.122-2.499-2.754v-7.599h-3.595v8.389c0 2.983 2.040 5.1 4.896 5.1 1.708 0 3.187-0.765 3.978-1.963v1.657h3.723v-13.183h-3.723zM135.515 12.824v-2.448h-3.723v13.183h3.723v-6.298c0-2.473 1.76-4.054 4.514-4.054v-3.136c-2.014 0-3.646 1.046-4.514 2.754zM148.067 10.070c-1.836 0-3.646 0.51-5.508 1.453l1.25 2.473c1.045-0.535 2.193-0.943 3.416-0.943 2.168 0 3.035 1.224 3.035 2.626v0.255c-1.122-0.433-2.295-0.663-3.366-0.663-3.060 0-5.482 1.785-5.482 4.386 0 2.524 2.168 4.207 4.972 4.207 1.428 0 2.933-0.561 3.876-1.632v1.326h3.595v-7.879c0-3.442-2.346-5.61-5.788-5.61zM147.225 21.29c-1.275 0-2.218-0.663-2.218-1.734s1.070-1.861 2.422-1.861c1.020 0 1.989 0.178 2.83 0.485v1.224c-0.255 1.224-1.606 1.887-3.035 1.887zM164.617 10.070c-1.708 0-3.187 0.765-3.978 1.963v-1.657h-3.723v13.183h3.723v-7.879l0.026 0.076c0-1.428 1.198-2.55 2.754-2.55 1.479 0 2.499 1.122 2.499 2.754v7.599h3.595v-8.389c0-2.983-2.040-5.1-4.896-5.1zM179.592 20.296c-0.254 0.255-0.765 0.434-1.275 0.434-0.689 0-1.25-0.612-1.25-1.479v-5.865h2.856v-3.009h-2.856v-3.621h-3.57v3.621h-1.811v3.009h1.811v6.451c0 2.371 1.632 4.029 3.952 4.029 1.071 0 2.27-0.459 3.035-1.148l-0.893-2.422z"></path>
</symbol>
<symbol id="icon-IMAGE-3" viewBox="0 0 170 32">
<path fill="none" stroke="#929292" style="stroke: var(--color1, #929292)" stroke-linejoin="round" stroke-linecap="round" stroke-miterlimit="4" stroke-width="2.7668" d="M15.187 2.592l-11.254 21.17c-0.156 0.292-0.253 0.612-0.285 0.942s0.003 0.662 0.1 0.979c0.098 0.316 0.258 0.61 0.47 0.864s0.473 0.463 0.767 0.616c3.742 1.886 7.875 2.869 12.066 2.869s8.324-0.983 12.066-2.869c0.302-0.145 0.571-0.348 0.792-0.599s0.39-0.543 0.497-0.86c0.106-0.317 0.148-0.652 0.123-0.986s-0.117-0.658-0.271-0.956l-11.254-21.17c-0.191-0.338-0.469-0.618-0.804-0.814s-0.716-0.298-1.105-0.298c-0.388 0-0.769 0.103-1.105 0.298s-0.613 0.476-0.804 0.814z"></path>
<path fill="none" stroke="#929292" style="stroke: var(--color1, #929292)" stroke-linejoin="round" stroke-linecap="round" stroke-miterlimit="4" stroke-width="2.7668" d="M28.591 20.779c-3.583 1.739-7.513 2.643-11.496 2.643s-7.913-0.903-11.496-2.642"></path>
<path fill="none" stroke="#929292" style="stroke: var(--color1, #929292)" stroke-linejoin="round" stroke-linecap="round" stroke-miterlimit="4" stroke-width="2.7668" d="M13.805 16.852v1.097"></path>
<path fill="none" stroke="#929292" style="stroke: var(--color1, #929292)" stroke-linejoin="round" stroke-linecap="round" stroke-miterlimit="4" stroke-width="2.7668" d="M20.386 16.852v1.097"></path>
<path fill="none" stroke="#929292" style="stroke: var(--color1, #929292)" stroke-linejoin="round" stroke-linecap="round" stroke-miterlimit="4" stroke-width="2.7668" d="M17.095 10.27v1.097"></path>
<path fill="#929292" style="fill: var(--color1, #929292)" d="M56.765 22.7l-4.022-5.712c2.237-0.785 3.713-2.689 3.713-5.117 0-3.237-2.618-5.521-6.164-5.521h-7.354v16.35h3.498v-5.307h2.594l3.736 5.307h3.998zM46.436 9.563h3.475c1.737 0 2.927 0.904 2.927 2.309s-1.19 2.309-2.927 2.309h-3.475v-4.617zM64.779 19.916c-1.452 0-2.523-0.904-2.927-2.237h8.877c0-4.641-2.261-7.568-6.116-7.568-3.594 0-6.331 2.689-6.331 6.402 0 3.784 2.856 6.473 6.521 6.473 1.809 0 3.927-0.762 5.022-1.904l-2.213-2.261c-0.666 0.643-1.856 1.095-2.832 1.095zM64.755 13.18c1.404 0 2.309 0.785 2.642 1.999h-5.498c0.452-1.238 1.547-1.999 2.856-1.999zM77.697 22.986c3.022 0 4.998-1.547 4.998-3.974 0-2.689-2.357-3.403-4.474-3.951-1.666-0.452-2.166-0.643-2.166-1.309 0-0.428 0.595-0.738 1.452-0.738 1.047 0 2.332 0.405 3.451 1.095l1.404-2.475c-1.356-0.904-3.094-1.523-4.855-1.523-2.903 0-4.831 1.666-4.808 3.998 0.024 2.428 1.975 3.118 4.498 3.736 1.261 0.333 2.165 0.571 2.165 1.333 0 0.547-0.666 0.928-1.594 0.928-1.642 0-3.022-0.595-4.117-1.38l-1.499 2.404c1.476 1.19 3.57 1.856 5.545 1.856zM91.499 19.654c-0.237 0.238-0.714 0.405-1.19 0.405-0.643 0-1.166-0.571-1.166-1.38v-5.474h2.665v-2.808h-2.665v-3.38h-3.332v3.38h-1.69v2.808h1.69v6.021c0 2.213 1.523 3.76 3.689 3.76 1 0 2.118-0.428 2.832-1.071l-0.833-2.261zM100.006 10.11c-1.714 0-3.403 0.476-5.141 1.357l1.166 2.309c0.976-0.5 2.047-0.881 3.189-0.881 2.023 0 2.832 1.142 2.832 2.451v0.238c-1.047-0.405-2.142-0.619-3.142-0.619-2.856 0-5.116 1.666-5.116 4.093 0 2.356 2.023 3.927 4.641 3.927 1.333 0 2.737-0.524 3.617-1.523v1.238h3.356v-7.354c0-3.213-2.189-5.236-5.402-5.236zM99.22 20.582c-1.19 0-2.070-0.619-2.070-1.618s0.999-1.737 2.261-1.737c0.952 0 1.857 0.167 2.642 0.452v1.142c-0.238 1.142-1.499 1.761-2.832 1.761zM116.5 10.396v7.354l-0.024-0.071c0 1.333-1.119 2.38-2.57 2.38-1.38 0-2.332-1.047-2.332-2.57v-7.092h-3.356v7.83c0 2.785 1.904 4.76 4.57 4.76 1.594 0 2.975-0.714 3.713-1.833v1.547h3.475v-12.304h-3.475zM126.43 12.681v-2.285h-3.475v12.304h3.475v-5.878c0-2.309 1.643-3.784 4.213-3.784v-2.927c-1.88 0-3.403 0.976-4.213 2.57zM138.145 10.11c-1.714 0-3.403 0.476-5.141 1.357l1.166 2.309c0.976-0.5 2.047-0.881 3.189-0.881 2.022 0 2.832 1.142 2.832 2.451v0.238c-1.047-0.405-2.142-0.619-3.141-0.619-2.857 0-5.117 1.666-5.117 4.093 0 2.356 2.023 3.927 4.641 3.927 1.333 0 2.737-0.524 3.617-1.523v1.238h3.356v-7.354c0-3.213-2.19-5.236-5.402-5.236zM137.36 20.582c-1.19 0-2.071-0.619-2.071-1.618s1-1.737 2.261-1.737c0.952 0 1.857 0.167 2.642 0.452v1.142c-0.238 1.142-1.499 1.761-2.832 1.761zM153.591 10.11c-1.594 0-2.975 0.714-3.713 1.833v-1.547h-3.475v12.304h3.475v-7.354l0.024 0.071c0-1.333 1.119-2.38 2.57-2.38 1.381 0 2.332 1.047 2.332 2.57v7.092h3.356v-7.83c0-2.784-1.904-4.76-4.57-4.76zM167.568 19.654c-0.238 0.238-0.715 0.405-1.19 0.405-0.643 0-1.166-0.571-1.166-1.38v-5.474h2.666v-2.808h-2.666v-3.38h-3.332v3.38h-1.69v2.808h1.69v6.021c0 2.213 1.523 3.76 3.689 3.76 1 0 2.118-0.428 2.832-1.071l-0.833-2.261z"></path>
</symbol>
<symbol id="lightning" viewBox="0 0 36 32">
<path fill="#ffc107" style="fill: var(--color1, #ffc107)" d="M15.409 15.669c0.264-0.379-0.008-0.898-0.469-0.898h-5.617c-0.399 0-0.675-0.399-0.535-0.773l4.549-12.083c0.141-0.374-0.136-0.773-0.535-0.773h-7.562c-0.255 0-0.479 0.169-0.549 0.414l-4.484 15.693c-0.104 0.365 0.17 0.728 0.549 0.728h5.411c0.37 0 0.642 0.346 0.555 0.706l-2.799 11.561c-0.149 0.615 0.663 0.98 1.024 0.461l10.46-15.037z"></path>
</symbol>
<symbol id="man" viewBox="0 0 36 32">
<path fill="#ff5634" style="fill: var(--color2, #ff5634)" d="M11.907 18.624c-6.576 0-11.907 3.662-11.907 7.655v0.851c0 0.822 0.666 1.488 1.488 1.488h20.837c0.822 0 1.488-0.666 1.488-1.488v-0.851c0-3.993-5.331-7.655-11.907-7.655z"></path>
<path fill="#e8ad8c" style="fill: var(--color3, #e8ad8c)" d="M15.628 20.431c0 1.412-2.106 2.977-3.721 2.977s-3.721-1.565-3.721-2.977c0-1.962 0-5.235 0-5.235h7.442c0 0 0 3.273 0 5.235z"></path>
<path fill="#e8ad8c" style="fill: var(--color3, #e8ad8c)" d="M18.542 9.269h-0.392v2.977h0.523c0.383 0 0.71-0.232 0.775-0.551l0.256-1.267c0.123-0.606-0.432-1.159-1.162-1.159z"></path>
<path fill="#e8ad8c" style="fill: var(--color3, #e8ad8c)" d="M5.272 9.269h0.392v2.977h-0.523c-0.383 0-0.71-0.232-0.775-0.551l-0.256-1.267c-0.123-0.606 0.432-1.159 1.162-1.159z"></path>
<path fill="#ffe3d3" style="fill: var(--color4, #ffe3d3)" d="M11.907 0.636c-3.305 0-6.698 0.502-6.698 7.647 0 0.572 0 4.374 0 4.985 0 2.55 4.019 5.676 6.698 5.676s6.698-3.126 6.698-5.676c0-0.611 0-4.412 0-4.985 0-7.144-3.393-7.647-6.698-7.647z"></path>
<path fill="#3f3f3f" style="fill: var(--color5, #3f3f3f)" d="M11.907 0c-3.24 0-3.721 1.218-3.721 1.218-1.317 0.194-3.721 2.124-3.721 4.33 0 1.231 0.197 2.14 0.744 5.209 0.406-4.871 1.674-6.698 2.977-6.698 0.943 0 1.692 0.744 3.721 0.744 1.714 0 2.14-0.744 3.721-0.744 2.233 0 2.977 5.93 2.977 6.698 0.447-2.24 0.744-4.134 0.744-5.209 0-2.552-2.821-5.547-7.442-5.547z"></path>
<path fill="#4caf50" style="fill: var(--color6, #4caf50)" d="M29.767 24.153c0 4.109-3.332 7.442-7.442 7.442s-7.442-3.332-7.442-7.442 3.332-7.442 7.442-7.442c4.109 0 7.442 3.332 7.442 7.442z"></path>
<path fill="#fff" style="fill: var(--color7, #fff)" d="M21.318 27.393l-2.977-2.977c-0.145-0.145-0.145-0.381 0-0.526l0.526-0.526c0.145-0.145 0.381-0.145 0.526 0l2.188 2.187 4.048-4.048c0.145-0.145 0.381-0.145 0.526 0l0.526 0.526c0.145 0.145 0.145 0.381 0 0.526l-4.837 4.837c-0.145 0.145-0.38 0.145-0.526 0z"></path>
</symbol>
<symbol id="dolor" viewBox="0 0 36 32">
<path fill="#a5d6a7" style="fill: var(--color8, #a5d6a7)" d="M1.344 7.186h33.761v17.957h-33.761v-17.957z"></path>
<path fill="#388e3c" style="fill: var(--color9, #388e3c)" d="M0 24.374c0 0.947 0.767 1.714 1.714 1.714h32.577c0.947 0 1.714-0.768 1.714-1.714v-16.946c0-0.631-0.512-1.143-1.143-1.143h-33.72c-0.631 0-1.143 0.512-1.143 1.143v16.946zM34.205 8.086v16.202h-32.405v-16.202h32.405z"></path>
<path fill="#388e3c" style="fill: var(--color9, #388e3c)" d="M7.201 14.387c-0.477 0-0.935 0.19-1.273 0.527s-0.527 0.796-0.527 1.273c0 0.477 0.19 0.935 0.527 1.273s0.796 0.527 1.273 0.527c0.478 0 0.935-0.19 1.273-0.527s0.527-0.796 0.527-1.273c0-0.477-0.19-0.935-0.527-1.273s-0.796-0.527-1.273-0.527zM28.804 14.387c-0.477 0-0.935 0.19-1.273 0.527s-0.527 0.796-0.527 1.273c0 0.477 0.19 0.935 0.527 1.273s0.796 0.527 1.273 0.527 0.935-0.19 1.273-0.527c0.338-0.338 0.527-0.796 0.527-1.273s-0.19-0.935-0.527-1.273c-0.338-0.338-0.796-0.527-1.273-0.527zM18.003 9.886c-1.671 0-3.274 0.664-4.455 1.845s-1.846 2.784-1.846 4.455c0 1.671 0.664 3.274 1.846 4.456s2.784 1.846 4.455 1.846c1.671 0 3.274-0.664 4.455-1.846s1.846-2.784 1.846-4.456c0-1.671-0.664-3.274-1.846-4.455s-2.784-1.845-4.455-1.845zM31.306 7.186c-0.431 0.479-0.701 1.105-0.701 1.8 0 1.492 1.209 2.7 2.7 2.7 0.695 0 1.321-0.27 1.8-0.701v-3.8h-3.799zM4.7 7.186h-3.799v3.8c0.479 0.431 1.105 0.701 1.8 0.701 1.492 0 2.7-1.209 2.7-2.7 0-0.695-0.27-1.321-0.701-1.8zM4.7 25.189c0.431-0.479 0.701-1.105 0.701-1.8 0-1.491-1.209-2.7-2.7-2.7-0.695 0-1.321 0.27-1.8 0.701v3.799h3.799zM35.105 25.189v-3.799c-0.479-0.431-1.105-0.701-1.8-0.701-1.492 0-2.7 1.209-2.7 2.7 0 0.695 0.27 1.321 0.701 1.8h3.799z"></path>
</symbol>
<symbol id="purse" viewBox="0 0 36 32">
<path fill="#f57c00" style="fill: var(--color10, #f57c00)" d="M0 7.809v16c0 1.473 1.194 2.667 2.667 2.667 0 0 21.333 0 22 0s0.667-0.664 0.667-0.664v-18.003h-25.333z"></path>
<path fill="#942a09" style="fill: var(--color11, #942a09)" d="M24.667 5.143h-22c-1.473 0-2.667 1.193-2.667 2.666s1.194 2.667 2.667 2.667c0 0 21.333 0 22 0s0.667 0.667 0.667 0.667v-5.333c0-0.368-0.298-0.667-0.667-0.667z"></path>
<path fill="#4caf50" style="fill: var(--color6, #4caf50)" d="M2.667 7.809v2.667c4.869 0 21.431 0 22 0 0.667 0 0.667 0.668 0.667 0.668v13.999h1.333v-17.333h-24z"></path>
<path fill="#c8e6c9" style="fill: var(--color12, #c8e6c9)" d="M2.667 9.143v1.333c3.673 0 14.035 0 19.122 0-0.197-0.415-0.331-0.863-0.401-1.333h-18.721z"></path>
<path fill="#bf360c" style="fill: var(--color13, #bf360c)" d="M28 15.714c0-0.316-0.256-0.571-0.571-0.571h-5.429c-1.473 0-2.667 1.194-2.667 2.667s1.194 2.667 2.667 2.667h5.429c0.316 0 0.571-0.256 0.571-0.571v-4.19z"></path>
<path fill="#ffecb3" style="fill: var(--color14, #ffecb3)" d="M22 16.476c-0.354 0-0.693 0.14-0.943 0.39s-0.39 0.589-0.39 0.943c0 0.354 0.14 0.693 0.39 0.943s0.589 0.39 0.943 0.39c0.354 0 0.693-0.14 0.943-0.39s0.391-0.589 0.391-0.943c0-0.354-0.14-0.693-0.391-0.943s-0.589-0.39-0.943-0.39z"></path>
</symbol>
<symbol id="instruction-1" viewBox="0 0 37 32">
<path fill="#3f3f3f" style="fill: var(--color1, #3f3f3f)" d="M13.522 32.026c2.211 0 4.003-1.792 4.003-4.003s-1.792-4.003-4.003-4.003c-2.211 0-4.003 1.792-4.003 4.003s1.792 4.003 4.003 4.003z"></path>
<path fill="#ff5634" style="fill: var(--color2, #ff5634)" d="M3.914 20.817h7.206c0.442 0 0.801-0.359 0.801-0.801s-0.359-0.801-0.801-0.801h-7.206c-0.442 0-0.801 0.359-0.801 0.801s0.359 0.801 0.801 0.801z"></path>
<path fill="#3f3f3f" style="fill: var(--color1, #3f3f3f)" d="M32.738 32.026c2.211 0 4.003-1.792 4.003-4.003s-1.792-4.003-4.003-4.003c-2.211 0-4.003 1.792-4.003 4.003s1.792 4.003 4.003 4.003z"></path>
<path fill="#fff" style="fill: var(--color3, #fff)" d="M32.738 29.625c0.884 0 1.601-0.717 1.601-1.601s-0.717-1.601-1.601-1.601c-0.884 0-1.601 0.717-1.601 1.601s0.717 1.601 1.601 1.601z"></path>
<path fill="#fff" style="fill: var(--color3, #fff)" d="M13.522 29.625c0.884 0 1.601-0.717 1.601-1.601s-0.717-1.601-1.601-1.601-1.601 0.717-1.601 1.601c0 0.884 0.717 1.601 1.601 1.601z"></path>
<path fill="#e13f1f" style="fill: var(--color4, #e13f1f)" d="M32.738 28.824c-0.32 0-0.56-0.16-0.721-0.48l-3.203-6.405c-0.16-0.4 0-0.881 0.32-1.041 0.4-0.16 0.881 0 1.041 0.32l3.203 6.405c0.16 0.4 0 0.881-0.32 1.041-0.080 0.16-0.16 0.16-0.32 0.16z"></path>
<path fill="#e13f1f" style="fill: var(--color4, #e13f1f)" d="M15.924 28.023h9.685c0.842 0 1.498-0.693 1.685-1.513 0.64-2.813 3.069-3.976 5.203-4.251 1.121-0.080 1.041-1.441 1.041-1.441-1.601-5.605-5.605-9.608-7.206-11.209h-1.601c2.336 4.516 3.024 16.236-3.203 16.013h-5.605v2.402z"></path>
<path fill="#e13f1f" style="fill: var(--color4, #e13f1f)" d="M19.927 18.415h-8.007c-1.601 1.601-3.203 4.804-3.203 7.206 1.601 0.801 7.206 0 7.206 0h5.605c-3.103 0-4.003-4.425-1.601-7.206z"></path>
<path fill="#ffc107" style="fill: var(--color5, #ffc107)" d="M27.934 7.206v3.203c0.881 0 1.601-0.721 1.601-1.601s-0.721-1.601-1.601-1.601z"></path>
<path fill="#3f3f3f" style="fill: var(--color1, #3f3f3f)" d="M21.728 19.056c0 0.207-0.111 0.396-0.296 0.487-0.559 0.275-1.934 0.794-4.348 0.794-3.283 0-5.765-1.121-5.765-1.121v-0.4c0-1.106 0.896-2.002 2.002-2.002h6.165c1.233 0 2.242 1.009 2.242 2.242z"></path>
<path fill="#ff5634" style="fill: var(--color2, #ff5634)" d="M24.737 9.91c1.005 0.324 2.074 0.483 3.196 0.499v-3.203c-1.115 0.015-2.196 0.195-3.244 0.529-0.46 0.147-0.759 0.594-0.759 1.077 0 0.503 0.329 0.944 0.807 1.098z"></path>
<path fill="#ff5634" style="fill: var(--color2, #ff5634)" d="M13.522 22.418c-2.673 0-5.438 1.742-6.695 4.236-0.334 0.664 0.209 1.368 0.952 1.368h10.204c0.631 0 1.155-0.517 1.032-1.136-0.513-2.578-2.745-4.469-5.494-4.469z"></path>
<path fill="#3f3f3f" style="fill: var(--color1, #3f3f3f)" d="M19.927 10.409h5.605c0.442 0 0.801-0.359 0.801-0.801s-0.359-0.801-0.801-0.801h-5.605c-0.442 0-0.801 0.359-0.801 0.801s0.359 0.801 0.801 0.801z"></path>
<path fill="#fdb52a" style="fill: var(--color6, #fdb52a)" d="M11.12 10.409h-10.409v7.665c0 0.631 0.512 1.143 1.143 1.143h8.123c0.631 0 1.143-0.512 1.143-1.143v-7.665z"></path>
<path fill="#d99002" style="fill: var(--color7, #d99002)" d="M10.358 9.608h-8.885c-0.421 0-0.762 0.341-0.762 0.762v1.64h10.409v-1.64c0-0.421-0.341-0.762-0.762-0.762z"></path>
<path fill="#fdb52a" style="fill: var(--color6, #fdb52a)" d="M12.721 0.801h-10.409v7.664c0 0.631 0.512 1.143 1.143 1.143h8.123c0.631 0 1.143-0.512 1.143-1.143v-7.664z"></path>
<path fill="#d99002" style="fill: var(--color7, #d99002)" d="M11.959 0h-8.885c-0.421 0-0.762 0.341-0.762 0.762v1.64h10.409v-1.64c0-0.421-0.341-0.762-0.762-0.762z"></path>
</symbol>
<symbol id="instruction-2" viewBox="0 0 37 32">
<path fill="#e13f1f" style="fill: var(--color4, #e13f1f)" d="M10.368 6.974c-1.112 0-2.010-0.359-2.732-0.649-1.151-0.461-1.652-0.62-2.499 0.058-0.355 0.284-0.87 0.225-1.154-0.128s-0.225-0.871 0.128-1.153c1.63-1.304 2.96-0.771 4.135-0.3 0.652 0.261 1.326 0.531 2.122 0.531 0.454 0 0.82 0.368 0.82 0.821s-0.367 0.821-0.82 0.821z"></path>
<path fill="#ff5634" style="fill: var(--color2, #ff5634)" d="M12.009 8.205h-3.282v-2.462c0-0.453 0.368-0.821 0.82-0.821h1.641c0.453 0 0.821 0.368 0.821 0.821v2.462z"></path>
<path fill="#e13f1f" style="fill: var(--color4, #e13f1f)" d="M13.65 10.667h-6.564v-2.462c0-0.453 0.368-0.821 0.82-0.821h4.923c0.453 0 0.821 0.368 0.821 0.821v2.462z"></path>
<path fill="#ff5634" style="fill: var(--color2, #ff5634)" d="M16.111 14.769h-11.487v-3.282c0-0.907 0.734-1.641 1.641-1.641h8.205c0.907 0 1.641 0.734 1.641 1.641v3.282z"></path>
<path fill="#f9f9f9" style="fill: var(--color8, #f9f9f9)" d="M24.464 11.077c-0.090-0.23-0.189-0.46-0.295-0.681l-0.271-0.55-0.804-1.641h-7.401l-0.804 1.641-0.271 0.55c-0.107 0.222-0.205 0.451-0.295 0.681-0.443 1.116-0.673 2.322-0.673 3.528v0.574h11.487v-0.574c0-1.206-0.23-2.412-0.673-3.528z"></path>
<path fill="#cacaca" style="fill: var(--color9, #cacaca)" d="M23.898 9.846h-9.009l0.804-1.641 1.403-2.872h4.595l1.403 2.872 0.804 1.641z"></path>
<path fill="#656565" style="fill: var(--color10, #656565)" d="M17.342 5.743h4.103c0.679 0 1.231-0.551 1.231-1.231s-0.551-1.231-1.231-1.231h-4.103c-0.679 0-1.231 0.551-1.231 1.231s0.551 1.231 1.231 1.231z"></path>
<path fill="#ffcf7b" style="fill: var(--color11, #ffcf7b)" d="M32.522 14.769h-7.385v-11.077c0-2.039 1.653-3.692 3.692-3.692s3.692 1.653 3.692 3.692v11.077z"></path>
<path fill="#e38101" style="fill: var(--color12, #e38101)" d="M29.565 6.069c-0.782 0.782-1.79 1.145-2.383 1.301-0.263 0.071-0.464-0.13-0.393-0.393 0.012-0.042 0.025-0.089 0.037-0.135 0.172-0.6 0.538-1.522 1.264-2.247s1.643-1.091 2.245-1.261c0.049-0.015 0.096-0.027 0.138-0.039 0.263-0.071 0.464 0.13 0.393 0.393-0.154 0.593-0.519 1.601-1.3 2.383z"></path>
<path fill="#e38101" style="fill: var(--color12, #e38101)" d="M29.565 11.813c-0.782 0.782-1.79 1.145-2.383 1.3-0.263 0.071-0.464-0.13-0.393-0.393 0.012-0.042 0.025-0.089 0.037-0.135 0.172-0.6 0.538-1.522 1.264-2.247s1.643-1.091 2.245-1.261c0.049-0.015 0.096-0.027 0.138-0.039 0.263-0.071 0.464 0.13 0.393 0.393-0.154 0.593-0.519 1.601-1.3 2.383z"></path>
<path fill="#4caf50" style="fill: var(--color13, #4caf50)" d="M34.663 14.982l-0.336 2.248-0.049 0.328-1.928 12.907c-0.139 0.886-0.894 1.534-1.789 1.534h-23.975c-0.894 0-1.649-0.648-1.789-1.534l-1.912-12.907-0.049-0.328-0.336-2.248c-0.082-0.55 0.336-1.034 0.894-1.034h30.375c0.558 0 0.976 0.484 0.894 1.034z"></path>
<path fill="#53d158" style="fill: var(--color14, #53d158)" d="M34.663 14.982l-0.336 2.248h-31.491l-0.336-2.248c-0.082-0.55 0.336-1.034 0.894-1.034h30.375c0.558 0 0.976 0.484 0.894 1.034z"></path>
<path fill="#000" style="fill: var(--color15, #000)" opacity="0.18" d="M15.701 30.359c-0.679 0-1.231-0.551-1.231-1.231v-9.026c0-0.679 0.551-1.231 1.231-1.231s1.231 0.551 1.231 1.231v9.026c0 0.679-0.551 1.231-1.231 1.231z"></path>
<path fill="#000" style="fill: var(--color15, #000)" opacity="0.18" d="M9.958 30.359c-0.679 0-1.231-0.551-1.231-1.231v-9.026c0-0.679 0.551-1.231 1.231-1.231s1.231 0.551 1.231 1.231v9.026c0 0.679-0.551 1.231-1.231 1.231z"></path>
<path fill="#000" style="fill: var(--color15, #000)" opacity="0.18" d="M21.445 30.359c-0.679 0-1.231-0.551-1.231-1.231v-9.026c0-0.679 0.551-1.231 1.231-1.231s1.231 0.551 1.231 1.231v9.026c0 0.679-0.551 1.231-1.231 1.231z"></path>
<path fill="#000" style="fill: var(--color15, #000)" opacity="0.18" d="M27.188 30.359c-0.679 0-1.231-0.551-1.231-1.231v-9.026c0-0.679 0.551-1.231 1.231-1.231s1.231 0.551 1.231 1.231v9.026c0 0.679-0.551 1.231-1.231 1.231z"></path>
</symbol>
<symbol id="instruction-3" viewBox="0 0 37 32">
<path fill="#fdb52a" style="fill: var(--color6, #fdb52a)" d="M10.489 14.667c3.682 0 6.667-2.985 6.667-6.667s-2.985-6.667-6.667-6.667c-3.682 0-6.667 2.985-6.667 6.667s2.985 6.667 6.667 6.667z"></path>
<path fill="#fdb52a" style="fill: var(--color6, #fdb52a)" d="M10.489 13.667c3.13 0 5.667-2.537 5.667-5.667s-2.537-5.667-5.667-5.667c-3.13 0-5.667 2.537-5.667 5.667s2.537 5.667 5.667 5.667z"></path>
<path fill="#fff" style="fill: var(--color3, #fff)" d="M12.239 9.117c0-1.714-2.53-1.379-2.53-2.391 0-0.528 0.594-0.556 0.78-0.556 0.447 0 0.878 0.12 1.206 0.274 0.104 0.049 0.223-0.023 0.223-0.138v-0.499c0-0.167-0.063-0.266-0.163-0.306-0.225-0.087-0.549-0.152-1.027-0.167v-0.549c0-0.066-0.053-0.119-0.119-0.119h-0.238c-0.066 0-0.119 0.053-0.119 0.119v0.558c-0.743 0.072-1.512 0.491-1.512 1.465 0 1.776 2.53 1.424 2.53 2.36 0 0.294-0.188 0.547-0.78 0.547-0.595 0-1.142-0.208-1.445-0.363-0.102-0.052-0.222 0.023-0.222 0.138v0.568c0 0.109 0.065 0.206 0.166 0.248 0.359 0.152 0.84 0.268 1.263 0.301v0.607c0 0.066 0.053 0.119 0.119 0.119h0.238c0.066 0 0.119-0.053 0.119-0.119v-0.605c1.11-0.093 1.512-0.836 1.512-1.492z"></path>
<path fill="#ff5634" style="fill: var(--color2, #ff5634)" d="M20.879 5.173l-12.841 12.841c-1.147 1.147-1.147 3.006 0 4.152l8.96 8.96c1.147 1.147 3.006 1.147 4.152 0l12.841-12.841c0.546-0.546 0.854-1.288 0.854-2.060v-8.992c0-1.603-1.311-2.914-2.914-2.914h-8.991c-0.773 0-1.514 0.307-2.061 0.854zM30.474 10.146c-0.801 0-1.457-0.656-1.457-1.457s0.656-1.457 1.457-1.457c0.801 0 1.457 0.656 1.457 1.457s-0.656 1.457-1.457 1.457z"></path>
<path fill="#fff" style="fill: var(--color3, #fff)" d="M26.905 18.211l-11.912 2.515-1.227-1.227 11.902-2.526 1.238 1.238zM17.982 16.601c-0.513-0.513-0.764-1.089-0.752-1.728s0.293-1.233 0.842-1.783c0.6-0.6 1.244-0.91 1.929-0.928s1.307 0.251 1.864 0.807c0.533 0.533 0.79 1.109 0.773 1.727s-0.316 1.217-0.894 1.794c-0.593 0.593-1.23 0.898-1.911 0.915-0.682 0.017-1.299-0.251-1.852-0.805zM18.816 24.751c-0.513-0.513-0.765-1.088-0.752-1.727 0.012-0.639 0.293-1.233 0.842-1.784 0.6-0.6 1.244-0.909 1.929-0.927s1.307 0.251 1.864 0.807c0.536 0.537 0.797 1.112 0.779 1.725s-0.313 1.209-0.891 1.785c-0.593 0.594-1.232 0.9-1.917 0.921s-1.302-0.247-1.855-0.8zM20.949 13.825c-0.489-0.49-1.075-0.394-1.756 0.287-0.644 0.644-0.733 1.199-0.267 1.665 0.476 0.476 1.050 0.379 1.72-0.291 0.654-0.655 0.755-1.208 0.302-1.661zM21.77 21.959c-0.487-0.487-1.070-0.388-1.75 0.291-0.644 0.644-0.729 1.202-0.257 1.675 0.476 0.476 1.050 0.38 1.72-0.291 0.313-0.312 0.49-0.618 0.533-0.916s-0.038-0.551-0.245-0.759z"></path>
</symbol>
<symbol id="instruction-4" viewBox="0 0 37 32">
<path fill="#ededed" style="fill: var(--color16, #ededed)" d="M30.266 14.407c-0.29-0.961-1.171-1.666-2.226-1.666-0.013 0-0.026 0.004-0.039 0.004-0.188-1.32-1.313-2.339-2.685-2.339-0.839 0-1.58 0.388-2.080 0.984-0.319-0.131-0.667-0.205-1.034-0.205-0.264 0-0.514 0.050-0.756 0.12-0.521-0.992-1.549-1.677-2.747-1.677-1.166 0-2.171 0.649-2.704 1.598-0.133-0.023-0.269-0.041-0.409-0.041-0.189 0-0.371 0.029-0.547 0.072-0.428-0.515-1.066-0.85-1.788-0.85-0.487 0-0.939 0.149-1.313 0.405-0.412-0.252-0.892-0.405-1.411-0.405-1.505 0-2.724 1.22-2.724 2.724 0 0.146 0.021 0.285 0.043 0.424-1.339 0.172-2.378 1.303-2.378 2.689 0 1.505 1.22 2.724 2.724 2.724 0.133 0 0.261-0.021 0.389-0.039v0.039h20.237v-0.143c0.244 0.087 0.504 0.143 0.778 0.143 1.29 0 2.335-1.045 2.335-2.335 0-1.055-0.704-1.937-1.666-2.226z"></path>
<path fill="#ff5634" style="fill: var(--color2, #ff5634)" d="M24.694 12.861l6.744-9.459 1.272 0.897-6.573 9.221h-1.249c-0.034-0.232-0.105-0.45-0.193-0.659zM23.72 11.647l5.098-9.858-1.379-0.722-5.233 10.119c0.56 0.001 1.081 0.17 1.514 0.462z"></path>
<path fill="#cacaca" style="fill: var(--color9, #cacaca)" d="M25.008 15.509c0.191-0.386 0.659-0.541 1.044-0.349s0.54 0.66 0.348 1.043l-0.696 1.392c-0.191 0.386-0.659 0.541-1.044 0.349s-0.539-0.66-0.348-1.043l0.696-1.392zM15.5 15.313c-0.3 0.308-0.293 0.801 0.014 1.101 0.31 0.3 0.802 0.293 1.101-0.015l1.086-1.116c0.3-0.309 0.293-0.801-0.016-1.101-0.308-0.301-0.802-0.293-1.101 0.015l-1.085 1.116zM11.343 12.793c-0.36-0.234-0.841-0.137-1.077 0.225-0.236 0.359-0.135 0.842 0.225 1.076l1.301 0.855c0.36 0.237 0.842 0.134 1.078-0.225s0.135-0.842-0.225-1.076l-1.302-0.855zM20.683 12.869c-0.36-0.236-0.841-0.137-1.077 0.223s-0.135 0.842 0.225 1.078l1.301 0.853c0.36 0.237 0.842 0.135 1.078-0.223 0.237-0.36 0.135-0.844-0.225-1.078l-1.302-0.853z"></path>
<path fill="#fdb52a" style="fill: var(--color6, #fdb52a)" d="M3.911 16.633h29.577c0 0-0.052 12.453-14.788 12.453s-14.788-12.453-14.788-12.453z"></path>
<path fill="#d68d00" style="fill: var(--color17, #d68d00)" d="M13.251 28.308h10.897v2.335h-10.897v-2.335z"></path>
</symbol>
<symbol id="instruction-5" viewBox="0 0 37 32">
<path fill="#ededed" style="fill: var(--color16, #ededed)" d="M1.778 9.778h33.778v16.889h-33.778v-16.889z"></path>
<path fill="#cacaca" style="fill: var(--color9, #cacaca)" d="M1.778 26.667h33.778v1.778c0 0.233-0.046 0.465-0.135 0.68s-0.22 0.412-0.385 0.577c-0.165 0.165-0.361 0.296-0.577 0.385s-0.447 0.135-0.68 0.135h-30.222c-0.233 0-0.465-0.046-0.68-0.135s-0.412-0.22-0.577-0.385c-0.165-0.165-0.296-0.361-0.385-0.577s-0.135-0.447-0.135-0.68v-1.778z"></path>
<path fill="#656565" style="fill: var(--color10, #656565)" d="M21.511 16c0-0.393 0.318-0.711 0.711-0.711h8.178c0.393 0 0.711 0.318 0.711 0.711v13.511c0 0.393-0.318 0.711-0.711 0.711h-8.178c-0.393 0-0.711-0.318-0.711-0.711v-13.511z"></path>
<path fill="#929292" style="fill: var(--color18, #929292)" d="M17.067 15.111h-11.022c-0.393 0-0.711 0.318-0.711 0.711v7.467c0 0.393 0.318 0.711 0.711 0.711h11.022c0.393 0 0.711-0.318 0.711-0.711v-7.467c0-0.393-0.318-0.711-0.711-0.711z"></path>
<path fill="#e13f1f" style="fill: var(--color4, #e13f1f)" d="M34.667 7.111h-32l-2.667 2.667v0.889c-0 0.233 0.046 0.465 0.135 0.68s0.22 0.412 0.385 0.577c0.165 0.165 0.361 0.296 0.577 0.385s0.447 0.135 0.68 0.135h33.778c0.234 0 0.465-0.046 0.681-0.135s0.412-0.22 0.577-0.385c0.165-0.165 0.296-0.361 0.385-0.577s0.135-0.447 0.135-0.68v-0.889l-2.667-2.667z"></path>
<path fill="#ff5634" style="fill: var(--color2, #ff5634)" d="M37.333 9.778h-37.333l1.627-7.307c0.044-0.196 0.153-0.372 0.309-0.498s0.352-0.195 0.553-0.195h32.356c0.201 0 0.396 0.069 0.553 0.195s0.266 0.302 0.309 0.498l1.627 7.307z"></path>
<path fill="#656565" style="fill: var(--color10, #656565)" d="M31.111 26.667h-9.6v3.556h9.6v-3.556z"></path>
</symbol>
<symbol id="instruction-6" viewBox="0 0 37 32">
<path fill="#689f38" style="fill: var(--color19, #689f38)" d="M28.513 15.649c0 0 1.682-3.006 1.837-4.702 0.049-0.532-0.142-1.056-0.586-1.352l-0.369-0.246c-0.458-0.305-0.686-0.856-0.578-1.396l0.288-0.964c0.147-0.735-0.33-1.45-1.065-1.596l-1.034-0.090c-0.514-0.103-0.923-0.493-1.050-1.001-0.21-0.842-1.147-1.273-1.923-0.885l-0.087 0.043c-0.523 0.261-1.206 0.069-1.619-0.345l-0.058-0.058c-0.584-0.585-1.549-0.516-2.045 0.145 0 0-0.99 1.313-1.608 1.313-1.331 2.624-0.619 11.753-0.619 11.753l9.858 0.89 0.658-1.508z"></path>
<path fill="#fafafa" style="fill: var(--color20, #fafafa)" d="M27.276 21.835v-6.186c0-2.43-1.856-2.19-1.856-7.423 0 0-2.337 0-3.093 0 0 5.232-1.856 4.993-1.856 7.423v6.186h6.804z"></path>
<path fill="#fdb52a" style="fill: var(--color6, #fdb52a)" d="M25.42 9.463h-3.093c-0.34 0-0.619-0.278-0.619-0.619v-0.619c0-0.34 0.278-0.619 0.619-0.619h3.093c0.34 0 0.619 0.278 0.619 0.619v0.619c0 0.34-0.278 0.619-0.619 0.619z"></path>
<path fill="#fafafa" style="fill: var(--color20, #fafafa)" d="M26.039 15.649c0-0.663-0.181-0.988-0.51-1.578-0.295-0.529-0.645-1.167-0.915-2.133h-1.479c-0.27 0.966-0.62 1.605-0.915 2.133-0.33 0.59-0.511 0.915-0.511 1.578v4.948h4.33v-4.948z"></path>
<path fill="#ffd54f" style="fill: var(--color21, #ffd54f)" d="M14.287 5.752c0.033-2.495 1.099-4.33 2.474-4.33s2.474 1.835 2.474 4.33c0 1.72-1.099 3.093-2.474 3.093s-2.497-1.374-2.474-3.093z"></path>
<path fill="#ffd54f" style="fill: var(--color21, #ffd54f)" d="M14.287 5.752h4.948v11.134h-4.948v-11.134z"></path>
<path fill="#ffb300" style="fill: var(--color22, #ffb300)" d="M14.905 9.465c0 0 0.541-1.353 1.533-2.263s2.179-0.83 2.179-0.83-0.564 1.316-1.556 2.224c-0.992 0.909-2.156 0.868-2.156 0.868zM14.905 13.795c0 0 0.541-1.353 1.533-2.263s2.179-0.83 2.179-0.83-0.564 1.316-1.556 2.224c-0.992 0.909-2.156 0.868-2.156 0.868z"></path>
<path fill="#ffab40" style="fill: var(--color23, #ffab40)" d="M15.080 18.394l-2.007 8.771c-0.15 0.763 0.435 1.474 1.214 1.474h14.844c0.753 0 1.331-0.667 1.225-1.412l-1.035-7.248-14.241-1.585z"></path>
<path fill="#ffab40" style="fill: var(--color23, #ffab40)" d="M28.513 25l1.847-9.338c0.061-0.328-0.191-0.631-0.524-0.631h-16.252c-0.325 0-0.574 0.288-0.528 0.609l1.232 8.051 14.226 1.309z"></path>
<path fill="#fb8c00" style="fill: var(--color24, #fb8c00)" d="M26.038 20.288l3.408 0.568-0.048-0.333 0.162-0.821-3.522 0.587zM17.38 22.166l-3.414-0.568 0.152 0.995-0.028 0.122 3.29-0.549z"></path>
<path fill="#4caf50" style="fill: var(--color13, #4caf50)" d="M12.686 19.069c-1.573 0-3.081 0.625-4.194 1.737s-1.737 2.621-1.737 4.194 0.625 3.081 1.737 4.194c1.112 1.112 2.621 1.737 4.194 1.737s3.081-0.625 4.194-1.737c1.112-1.112 1.737-2.621 1.737-4.194s-0.625-3.081-1.737-4.194c-1.112-1.112-2.621-1.737-4.194-1.737z"></path>
<path fill="#fff" style="fill: var(--color3, #fff)" d="M15.675 22.341l-3.832 3.837-1.582-1.578-0.798 0.799 2.381 2.376 4.631-4.635-0.799-0.799z"></path>
</symbol>
<symbol id="icon-file" viewBox="0 0 32 32">
<path fill="#ededed" style="fill: var(--color1, #ededed)" d="M24 6h-16v22.667c0 0.737 0.597 1.333 1.333 1.333h13.333c0.737 0 1.333-0.597 1.333-1.333v-22.667z"></path>
<path fill="#cacaca" style="fill: var(--color2, #cacaca)" d="M24 6h-16v-2c0-0.737 0.597-1.333 1.333-1.333h13.333c0.737 0 1.333 0.597 1.333 1.333v2z"></path>
<path fill="#929292" style="fill: var(--color3, #929292)" d="M13.333 4.833c0.276 0 0.5-0.224 0.5-0.5s-0.224-0.5-0.5-0.5c-0.276 0-0.5 0.224-0.5 0.5s0.224 0.5 0.5 0.5z"></path>
<path fill="#929292" style="fill: var(--color3, #929292)" d="M18.333 3.833c-0.129 0-3.204 0-3.333 0-0.276 0-0.5 0.224-0.5 0.5s0.224 0.5 0.5 0.5c0.129 0 3.204 0 3.333 0 0.276 0 0.5-0.224 0.5-0.5s-0.224-0.5-0.5-0.5z"></path>
<path fill="#fdb52a" style="fill: var(--color4, #fdb52a)" d="M20.148 22.667h-8.296c-0.285 0-0.519-0.233-0.519-0.519v-8.296c0-0.285 0.233-0.519 0.519-0.519h8.296c0.285 0 0.519 0.233 0.519 0.519v8.296c0 0.285-0.233 0.519-0.519 0.519z"></path>
<path fill="#fff" style="fill: var(--color5, #fff)" opacity="0.8" d="M13.778 14.667c0-0.245 0.199-0.444 0.444-0.444h3.556c0.245 0 0.444 0.199 0.444 0.444s-0.199 0.444-0.444 0.444h-3.556c-0.245 0-0.444-0.199-0.444-0.444z"></path>
</symbol>
<symbol id="icon-kalculate" viewBox="0 0 32 32">
<path fill="#ff5634" style="fill: var(--color6, #ff5634)" d="M19.532 29.333h-10.175c-0.746 0-1.357-0.96-1.357-2.133v-3.2h12.889v3.2c0 1.173-0.611 2.133-1.357 2.133z"></path>
<path fill="#000" style="fill: var(--color7, #000)" opacity="0.1" d="M8 23.333h12.667v2.667h-12.667v-2.667z"></path>
<path fill="#ededed" style="fill: var(--color1, #ededed)" d="M23.333 10h-17.333v12c0 1.467 1.2 2.667 2.667 2.667h12c1.467 0 2.667-1.2 2.667-2.667v-12z"></path>
<path fill="#929292" style="fill: var(--color3, #929292)" d="M20.667 2.667h-12c-1.467 0-2.667 1.2-2.667 2.667v5.333h17.333v-5.333c0-1.467-1.2-2.667-2.667-2.667z"></path>
<path fill="#656565" style="fill: var(--color8, #656565)" d="M20.667 8.667h-12c-0.4 0-0.667-0.267-0.667-0.667v-2.667c0-0.4 0.267-0.667 0.667-0.667h12c0.4 0 0.667 0.267 0.667 0.667v2.667c0 0.4-0.267 0.667-0.667 0.667z"></path>
<path fill="#cacaca" style="fill: var(--color2, #cacaca)" d="M18.667 6.667c0-0.368 0.299-0.667 0.667-0.667s0.667 0.298 0.667 0.667c0 0.368-0.299 0.667-0.667 0.667s-0.667-0.298-0.667-0.667zM16 6.667c0-0.368 0.299-0.667 0.667-0.667s0.667 0.298 0.667 0.667c0 0.368-0.299 0.667-0.667 0.667s-0.667-0.298-0.667-0.667z"></path>
<path fill="#ff5634" style="fill: var(--color6, #ff5634)" d="M21.333 14.667h-1.333c-0.4 0-0.667-0.267-0.667-0.667v-1.333c0-0.4 0.267-0.667 0.667-0.667h1.333c0.4 0 0.667 0.267 0.667 0.667v1.333c0 0.4-0.267 0.667-0.667 0.667z"></path>
<path fill="#cacaca" style="fill: var(--color2, #cacaca)" d="M9.333 14.667h-1.333c-0.4 0-0.667-0.267-0.667-0.667v-1.333c0-0.4 0.267-0.667 0.667-0.667h1.333c0.4 0 0.667 0.267 0.667 0.667v1.333c0 0.4-0.267 0.667-0.667 0.667zM13.333 14.667h-1.333c-0.4 0-0.667-0.267-0.667-0.667v-1.333c0-0.4 0.267-0.667 0.667-0.667h1.333c0.4 0 0.667 0.267 0.667 0.667v1.333c0 0.4-0.267 0.667-0.667 0.667zM9.333 18.667h-1.333c-0.4 0-0.667-0.267-0.667-0.667v-1.333c0-0.4 0.267-0.667 0.667-0.667h1.333c0.4 0 0.667 0.267 0.667 0.667v1.333c0 0.4-0.267 0.667-0.667 0.667zM13.333 18.667h-1.333c-0.4 0-0.667-0.267-0.667-0.667v-1.333c0-0.4 0.267-0.667 0.667-0.667h1.333c0.4 0 0.667 0.267 0.667 0.667v1.333c0 0.4-0.267 0.667-0.667 0.667zM9.333 22.667h-1.333c-0.4 0-0.667-0.267-0.667-0.667v-1.333c0-0.4 0.267-0.667 0.667-0.667h1.333c0.4 0 0.667 0.267 0.667 0.667v1.333c0 0.4-0.267 0.667-0.667 0.667zM13.333 22.667h-1.333c-0.4 0-0.667-0.267-0.667-0.667v-1.333c0-0.4 0.267-0.667 0.667-0.667h1.333c0.4 0 0.667 0.267 0.667 0.667v1.333c0 0.4-0.267 0.667-0.667 0.667zM17.333 14.667h-1.333c-0.4 0-0.667-0.267-0.667-0.667v-1.333c0-0.4 0.267-0.667 0.667-0.667h1.333c0.4 0 0.667 0.267 0.667 0.667v1.333c0 0.4-0.267 0.667-0.667 0.667zM17.333 18.667h-1.333c-0.4 0-0.667-0.267-0.667-0.667v-1.333c0-0.4 0.267-0.667 0.667-0.667h1.333c0.4 0 0.667 0.267 0.667 0.667v1.333c0 0.4-0.267 0.667-0.667 0.667zM17.333 22.667h-1.333c-0.4 0-0.667-0.267-0.667-0.667v-1.333c0-0.4 0.267-0.667 0.667-0.667h1.333c0.4 0 0.667 0.267 0.667 0.667v1.333c0 0.4-0.267 0.667-0.667 0.667z"></path>
<path fill="#4caf50" style="fill: var(--color9, #4caf50)" d="M21.333 18.667h-1.333c-0.4 0-0.667-0.267-0.667-0.667v-1.333c0-0.4 0.267-0.667 0.667-0.667h1.333c0.4 0 0.667 0.267 0.667 0.667v1.333c0 0.4-0.267 0.667-0.667 0.667z"></path>
<path fill="#fdb52a" style="fill: var(--color4, #fdb52a)" d="M21.333 22.667h-1.333c-0.4 0-0.667-0.267-0.667-0.667v-1.333c0-0.4 0.267-0.667 0.667-0.667h1.333c0.4 0 0.667 0.267 0.667 0.667v1.333c0 0.4-0.267 0.667-0.667 0.667z"></path>
<path fill="#929292" style="fill: var(--color3, #929292)" d="M24.667 21.333h-1.333v-15.333h1.333c0.733 0 1.333 0.6 1.333 1.333v12.667c0 0.733-0.6 1.333-1.333 1.333z"></path>
<path fill="#3f3f3f" style="fill: var(--color10, #3f3f3f)" d="M16 24.667h2v4.667h-2v-4.667z"></path>
</symbol>
<symbol id="icon-korzina" viewBox="0 0 32 32">
<path fill="#ededed" style="fill: var(--color1, #ededed)" d="M24 6h-16v22.667c0 0.737 0.597 1.333 1.333 1.333h13.333c0.737 0 1.333-0.597 1.333-1.333v-22.667z"></path>
<path fill="#cacaca" style="fill: var(--color2, #cacaca)" d="M24 6h-16v-2c0-0.737 0.597-1.333 1.333-1.333h13.333c0.737 0 1.333 0.597 1.333 1.333v2z"></path>
<path fill="#929292" style="fill: var(--color3, #929292)" d="M13.333 4.833c0.276 0 0.5-0.224 0.5-0.5s-0.224-0.5-0.5-0.5c-0.276 0-0.5 0.224-0.5 0.5s0.224 0.5 0.5 0.5z"></path>
<path fill="#929292" style="fill: var(--color3, #929292)" d="M18.333 3.833c-0.129 0-3.204 0-3.333 0-0.276 0-0.5 0.224-0.5 0.5s0.224 0.5 0.5 0.5c0.129 0 3.204 0 3.333 0 0.276 0 0.5-0.224 0.5-0.5s-0.224-0.5-0.5-0.5z"></path>
<path fill="#656565" style="fill: var(--color8, #656565)" d="M16.419 12.845c-0.237-0.237-0.593-0.237-0.829 0l-3.852 3.852c-0.237 0.237-0.237 0.593 0 0.829 0.119 0.119 0.267 0.178 0.415 0.178s0.296-0.059 0.415-0.178l3.852-3.852c0.237-0.237 0.237-0.593 0-0.829z"></path>
<path fill="#656565" style="fill: var(--color8, #656565)" d="M20.419 16.845l-4-4c-0.237-0.237-0.593-0.237-0.829 0s-0.237 0.593 0 0.829l4 4c0.119 0.119 0.267 0.178 0.415 0.178s0.296-0.059 0.415-0.178c0.237-0.237 0.237-0.593 0-0.829z"></path>
<path fill="#4caf50" style="fill: var(--color9, #4caf50)" d="M21.814 17.188l-0.121 0.812-0.018 0.119-0.696 4.661c-0.051 0.32-0.323 0.554-0.646 0.554h-8.658c-0.323 0-0.595-0.234-0.646-0.554l-0.691-4.661-0.017-0.119-0.121-0.812c-0.029-0.199 0.121-0.373 0.323-0.373h10.969c0.202 0 0.353 0.175 0.323 0.373z"></path>
<path fill="#000" style="fill: var(--color7, #000)" opacity="0.24" d="M14.967 22.741c-0.245 0-0.445-0.199-0.445-0.445v-3.259c0-0.245 0.199-0.445 0.445-0.445s0.445 0.199 0.445 0.445v3.259c0 0.245-0.199 0.445-0.445 0.445z"></path>
<path fill="#000" style="fill: var(--color7, #000)" opacity="0.24" d="M12.893 22.741c-0.245 0-0.445-0.199-0.445-0.445v-3.259c0-0.245 0.199-0.445 0.445-0.445s0.445 0.199 0.445 0.445v3.259c0 0.245-0.199 0.445-0.445 0.445z"></path>
<path fill="#000" style="fill: var(--color7, #000)" opacity="0.24" d="M17.041 22.741c-0.245 0-0.445-0.199-0.445-0.445v-3.259c0-0.245 0.199-0.445 0.445-0.445s0.445 0.199 0.445 0.445v3.259c0 0.245-0.199 0.445-0.445 0.445z"></path>
<path fill="#000" style="fill: var(--color7, #000)" opacity="0.24" d="M19.115 22.741c-0.245 0-0.445-0.199-0.445-0.445v-3.259c0-0.245 0.199-0.445 0.445-0.445s0.445 0.199 0.445 0.445v3.259c0 0.245-0.199 0.445-0.445 0.445z"></path>
</symbol>
<symbol id="icon-tochka" viewBox="0 0 32 32">
<path fill="#ededed" style="fill: var(--color1, #ededed)" d="M24 6h-16v22.667c0 0.737 0.597 1.333 1.333 1.333h13.333c0.737 0 1.333-0.597 1.333-1.333v-22.667z"></path>
<path fill="#cacaca" style="fill: var(--color2, #cacaca)" d="M24 6h-16v-2c0-0.737 0.597-1.333 1.333-1.333h13.333c0.737 0 1.333 0.597 1.333 1.333v2z"></path>
<path fill="#929292" style="fill: var(--color3, #929292)" d="M13.333 4.833c0.276 0 0.5-0.224 0.5-0.5s-0.224-0.5-0.5-0.5c-0.276 0-0.5 0.224-0.5 0.5s0.224 0.5 0.5 0.5z"></path>
<path fill="#929292" style="fill: var(--color3, #929292)" d="M18.333 3.833c-0.129 0-3.204 0-3.333 0-0.276 0-0.5 0.224-0.5 0.5s0.224 0.5 0.5 0.5c0.129 0 3.204 0 3.333 0 0.276 0 0.5-0.224 0.5-0.5s-0.224-0.5-0.5-0.5z"></path>
<path fill="#ff5634" style="fill: var(--color6, #ff5634)" d="M19.35 19.266c1.8-1.85 1.759-4.809-0.091-6.609s-4.809-1.759-6.609 0.091c-1.765 1.814-1.765 4.703 0 6.518 0.005 0.005 0.008 0.011 0.013 0.015l0.015 0.015c0.012 0.013 0.025 0.025 0.037 0.037l2.918 2.918c0.203 0.203 0.531 0.203 0.734 0l2.919-2.919c0.013-0.012 0.025-0.025 0.037-0.037l0.015-0.015c0.005-0.005 0.008-0.011 0.013-0.015z"></path>
<path fill="#f9f9f9" style="fill: var(--color11, #f9f9f9)" d="M16 18.088c1.147 0 2.077-0.93 2.077-2.077s-0.93-2.077-2.077-2.077c-1.147 0-2.077 0.93-2.077 2.077s0.93 2.077 2.077 2.077z"></path>
</symbol>
<symbol id="icon-LosAnn" viewBox="0 0 32 32">
<path fill="#f1f1f1" style="fill: var(--color1, #f1f1f1)" d="M32 0h-32v32h32v-32z"></path>
<path fill="#929292" style="fill: var(--color2, #929292)" d="M19.365 38.333h-6.731l1.683-20.192h3.365l1.683 20.192z"></path>
<path fill="#cacaca" style="fill: var(--color3, #cacaca)" d="M15.327 38.333h-2.692l1.683-20.192h1.010v20.192z"></path>
<path fill="#1d88fe" style="fill: var(--color4, #1d88fe)" d="M16.224 10.064c-0.088 0-0.176-0.008-0.258-0.023s-0.156-0.038-0.218-0.066c-0.063-0.028-0.112-0.062-0.146-0.099s-0.051-0.077-0.051-0.117v-6.119c0-0.081 0.071-0.159 0.197-0.216s0.297-0.090 0.476-0.090 0.35 0.032 0.476 0.090c0.126 0.057 0.197 0.135 0.197 0.216v6.119c0 0.040-0.017 0.080-0.051 0.117s-0.083 0.071-0.146 0.099c-0.062 0.028-0.137 0.051-0.218 0.066s-0.169 0.023-0.258 0.023z"></path>
<path fill="#8fc3ff" style="fill: var(--color5, #8fc3ff)" d="M13.682 8.718h4.637c0.357 0 0.699 0.142 0.952 0.394s0.394 0.595 0.394 0.952v2.692h-7.329v-2.692c0-0.357 0.142-0.699 0.394-0.952s0.595-0.394 0.952-0.394z"></path>
<path fill="#1d88fe" style="fill: var(--color4, #1d88fe)" d="M21.385 12.756h-10.769c-0.743 0-1.346 0.603-1.346 1.346s0.603 1.346 1.346 1.346h10.769c0.743 0 1.346-0.603 1.346-1.346s-0.603-1.346-1.346-1.346z"></path>
<path fill="#8fc3ff" style="fill: var(--color5, #8fc3ff)" d="M24.526 15.449h-17.051c-0.496 0-0.897 0.402-0.897 0.897s0.402 0.897 0.897 0.897h17.051c0.496 0 0.897-0.402 0.897-0.897s-0.402-0.897-0.897-0.897z"></path>
<path fill="#1d88fe" style="fill: var(--color4, #1d88fe)" d="M21.385 17.244h-10.769c-0.743 0-1.346 0.603-1.346 1.346s0.603 1.346 1.346 1.346h10.769c0.743 0 1.346-0.603 1.346-1.346s-0.603-1.346-1.346-1.346z"></path>
</symbol>
<symbol id="icon-newYork" viewBox="0 0 32 32">
<path fill="#f1f1f1" style="fill: var(--color1, #f1f1f1)" d="M32 0h-32v32h32v-32z"></path>
<path fill="#e8ad8c" style="fill: var(--color6, #e8ad8c)" d="M6.958 22.424c5.237-1.631 6.44-10.945 6.44-10.945l0.519-0c0 0 0.179 7.138-2.676 10.945h-4.283z"></path>
<path fill="#4caf50" style="fill: var(--color7, #4caf50)" d="M13.621 11.56l4.759-4.759c-0.258-0.053-0.525-0.081-0.799-0.081-2.187 0-3.96 1.773-3.96 3.96v0.88z"></path>
<path fill="#4caf50" style="fill: var(--color7, #4caf50)" d="M13.621 11.479h7.601c-0.868-1.154-2.245-1.903-3.8-1.903s-2.932 0.749-3.801 1.903z"></path>
<path fill="#4caf50" style="fill: var(--color7, #4caf50)" d="M14.429 11.479h-0.885l5.235 5.235c0.049-0.262 0.077-0.532 0.077-0.808 0-2.445-1.982-4.427-4.427-4.427z"></path>
<path fill="#4caf50" style="fill: var(--color7, #4caf50)" d="M13.621 11.56l-4.759-4.759c0.258-0.053 0.525-0.081 0.799-0.081 2.187 0 3.96 1.773 3.96 3.96v0.88z"></path>
<path fill="#4caf50" style="fill: var(--color7, #4caf50)" d="M13.621 11.479h-7.601c0.868-1.154 2.245-1.903 3.8-1.903s2.932 0.749 3.801 1.903z"></path>
<path fill="#4caf50" style="fill: var(--color7, #4caf50)" d="M12.813 11.479h0.885l-5.235 5.235c-0.049-0.262-0.077-0.532-0.077-0.808 0-2.445 1.982-4.427 4.427-4.427z"></path>
<path fill="#fdb52a" style="fill: var(--color8, #fdb52a)" d="M15.191 21.802l6.52 3.477h-14.752c-0.526 0-0.952-0.426-0.952-0.952v-2.855h7.865c0.46 0 0.913 0.113 1.319 0.33z"></path>
<path fill="#2aa4f4" style="fill: var(--color9, #2aa4f4)" d="M24.566 21.948c-0.789 0-1.428-0.476-1.428-0.476s-0.639 0.476-1.428 0.476c-0.789 0-1.428-0.476-1.428-0.476s-0.639 0.476-1.428 0.476c-0.788 0-1.428-0.476-1.428-0.476s-0.639 0.476-1.428 0.476c-0.336 0-0.641-0.087-0.885-0.187l6.596 3.518h3.331c0.526 0 0.952-0.426 0.952-0.952v-2.855c0 0-0.639 0.476-1.428 0.476z"></path>
</symbol>
<symbol id="icon-Seattle" viewBox="0 0 32 32">
<path fill="#f1f1f1" style="fill: var(--color1, #f1f1f1)" d="M32 0h-32v32h32v-32z"></path>
<path fill="#ff5634" style="fill: var(--color11, #ff5634)" d="M21.573 17.939h-11.71l-2.63 8.242h16.97l-2.63-8.242z"></path>
<path fill="#929292" style="fill: var(--color2, #929292)" d="M16.802 11.151l-0.795-5.568c-0.048-0.334-0.529-0.334-0.577 0l-0.795 5.568h2.167z"></path>
<path fill="#929292" style="fill: var(--color2, #929292)" d="M19.996 12.259l2.478-5.049c0.148-0.303-0.25-0.574-0.477-0.325l-3.792 4.154 1.791 1.22z"></path>
<path fill="#929292" style="fill: var(--color2, #929292)" d="M20.884 15.345l4.642-3.176c0.278-0.19 0.065-0.622-0.255-0.517l-5.345 1.749 0.959 1.944z"></path>
<path fill="#929292" style="fill: var(--color2, #929292)" d="M20.229 18.344l5.606-0.459c0.336-0.028 0.365-0.508 0.035-0.576l-5.51-1.13-0.131 2.164z"></path>
<path fill="#929292" style="fill: var(--color2, #929292)" d="M13.232 11.039l-3.792-4.154c-0.227-0.249-0.625 0.022-0.477 0.325l2.478 5.049 1.792-1.22z"></path>
<path fill="#929292" style="fill: var(--color2, #929292)" d="M11.51 13.402l-5.345-1.75c-0.32-0.105-0.533 0.327-0.255 0.517l4.642 3.176 0.959-1.944z"></path>
<path fill="#929292" style="fill: var(--color2, #929292)" d="M11.076 16.18l-5.51 1.13c-0.33 0.068-0.301 0.548 0.035 0.576l5.606 0.459-0.131-2.164z"></path>
<path fill="#cacaca" style="fill: var(--color3, #cacaca)" d="M18.667 23.273h-5.899c0 0-4.566 0-6.263 3.394h18.424c-1.697-3.394-6.263-3.394-6.263-3.394z"></path>
<path fill="#cacaca" style="fill: var(--color3, #cacaca)" d="M15.718 9.697c-3.532 0-5.818 1.734-5.818 5.403 0 6.491 5.818 7.203 5.818 7.203s5.818-0.713 5.818-7.203c0-3.668-2.286-5.403-5.818-5.403z"></path>
<path fill="#929292" style="fill: var(--color2, #929292)" d="M15.718 11.636c-3.997 0-4.848 2.495-4.848 4.845 0 3.207 1.735 4.851 1.735 4.851h6.226c0 0 1.735-1.644 1.735-4.851 0-2.351-0.851-4.846-4.848-4.846z"></path>
<path fill="#929292" style="fill: var(--color2, #929292)" d="M18.627 20.737h-5.818v3.214c0 0 0 1.745 2.909 1.745s2.909-1.745 2.909-1.745v-3.214z"></path>
<path fill="#cacaca" style="fill: var(--color3, #cacaca)" d="M19.597 17.090c0-2.941-1.739-4-3.879-4s-3.879 1.059-3.879 4c0 0.229 0 1.104 0 1.333 0 2.94 1.739 5.333 3.879 5.333s3.879-2.393 3.879-5.333c0-0.229 0-1.104 0-1.333z"></path>
</symbol>
<symbol id="icon-sanFran" viewBox="0 0 32 32">
<path fill="#f1f1f1" style="fill: var(--color1, #f1f1f1)" d="M31.595 0.385h-31.595v31.595h31.595v-31.595z"></path>
<path fill="#e13f1f" style="fill: var(--color10, #e13f1f)" d="M16.234 9.414h-0.873v3.057h0.873v-3.057z"></path>
<path fill="#e13f1f" style="fill: var(--color10, #e13f1f)" d="M18.854 9.414h-0.873v3.057h0.873v-3.057z"></path>
<path fill="#e13f1f" style="fill: var(--color10, #e13f1f)" d="M24.095 9.414h-0.873v3.057h0.873v-3.057z"></path>
<path fill="#e13f1f" style="fill: var(--color10, #e13f1f)" d="M8.373 9.414h-0.873v3.057h0.873v-3.057z"></path>
<path fill="#e13f1f" style="fill: var(--color10, #e13f1f)" d="M10.994 9.414h-0.873v3.057h0.873v-3.057z"></path>
<path fill="#e13f1f" style="fill: var(--color10, #e13f1f)" d="M13.614 9.414h-0.873v3.057h0.873v-3.057z"></path>
<path fill="#e13f1f" style="fill: var(--color10, #e13f1f)" d="M21.475 9.414h-0.873v3.057h0.873v-3.057z"></path>
<path fill="#e13f1f" style="fill: var(--color10, #e13f1f)" d="M24.968 12.471h-18.342v1.747c1.447 0 2.62 1.173 2.62 2.62v3.93h2.62v-2.62c0-2.171 1.76-3.93 3.93-3.93s3.93 1.759 3.93 3.93v2.62h2.62v-3.93c0-1.447 1.173-2.62 2.62-2.62v-1.747z"></path>
<path fill="#2aa4f4" style="fill: var(--color9, #2aa4f4)" d="M23.658 19.894c-0.724 0-1.31-0.437-1.31-0.437s-0.587 0.437-1.31 0.437c-0.724 0-1.31-0.437-1.31-0.437s-0.587 0.437-1.31 0.437c-0.724 0-1.31-0.437-1.31-0.437s-0.587 0.437-1.31 0.437c-0.724 0-1.31-0.437-1.31-0.437s-0.587 0.437-1.31 0.437c-0.724 0-1.31-0.437-1.31-0.437s-0.587 0.437-1.31 0.437c-0.724 0-1.31-0.437-1.31-0.437s-0.587 0.437-1.31 0.437c-0.724 0-1.31-0.437-1.31-0.437v3.494c0 0.483 0.391 0.873 0.873 0.873h16.595c0.483 0 0.873-0.391 0.873-0.873v-3.494c0 0-0.587 0.437-1.31 0.437z"></path>
<path fill="#ff5634" style="fill: var(--color11, #ff5634)" d="M24.968 8.54h-18.342v0.873h18.342v-0.873z"></path>
</symbol>
</defs>
</svg>
